<?xml version="1.0" encoding="utf-8" standalone="no"?>
<!DOCTYPE svg PUBLIC "-//W3C//DTD SVG 1.1//EN"
  "http://www.w3.org/Graphics/SVG/1.1/DTD/svg11.dtd">
<svg height="345.6pt" version="1.1" viewBox="0 0 460.8 345.6" width="460.8pt" xmlns="http://www.w3.org/2000/svg" xmlns:xlink="http://www.w3.org/1999/xlink">
 <metadata>
  <rdf:RDF xmlns:cc="http://creativecommons.org/ns#" xmlns:dc="http://purl.org/dc/elements/1.1/" xmlns:rdf="http://www.w3.org/1999/02/22-rdf-syntax-ns#">
   <cc:Work>
    <dc:type rdf:resource="http://purl.org/dc/dcmitype/StillImage"/>
    <dc:date>2022-02-23T16:00:29.153975</dc:date>
    <dc:format>image/svg+xml</dc:format>
    <dc:creator>
     <cc:Agent>
      <dc:title>Matplotlib v3.4.2, https://matplotlib.org/</dc:title>
     </cc:Agent>
    </dc:creator>
   </cc:Work>
  </rdf:RDF>
 </metadata>
 <defs>
  <style type="text/css">*{stroke-linecap:butt;stroke-linejoin:round;}</style>
 </defs>
 <g id="figure_1">
  <g id="patch_1">
   <path d="M 0 345.6 
L 460.8 345.6 
L 460.8 0 
L 0 0 
z
" style="fill:#ffffff;"/>
  </g>
  <g id="axes_1">
   <g id="patch_2">
    <path d="M 57.6 307.584 
L 414.72 307.584 
L 414.72 41.472 
L 57.6 41.472 
z
" style="fill:#ffffff;"/>
   </g>
   <g id="PathCollection_1">
    <defs>
     <path d="M 0 3 
C 0.795609 3 1.55874 2.683901 2.12132 2.12132 
C 2.683901 1.55874 3 0.795609 3 0 
C 3 -0.795609 2.683901 -1.55874 2.12132 -2.12132 
C 1.55874 -2.683901 0.795609 -3 0 -3 
C -0.795609 -3 -1.55874 -2.683901 -2.12132 -2.12132 
C -2.683901 -1.55874 -3 -0.795609 -3 0 
C -3 0.795609 -2.683901 1.55874 -2.12132 2.12132 
C -1.55874 2.683901 -0.795609 3 0 3 
z
" id="ma8e1670541" style="stroke:#2ca02c;"/>
    </defs>
    <g clip-path="url(#pb19f8a3d45)">
     <use style="fill:#2ca02c;stroke:#2ca02c;" x="73.832727" xlink:href="#ma8e1670541" y="244.687878"/>
     <use style="fill:#2ca02c;stroke:#2ca02c;" x="80.45833" xlink:href="#ma8e1670541" y="266.394598"/>
     <use style="fill:#2ca02c;stroke:#2ca02c;" x="87.083933" xlink:href="#ma8e1670541" y="269.382391"/>
     <use style="fill:#2ca02c;stroke:#2ca02c;" x="93.709536" xlink:href="#ma8e1670541" y="274.162547"/>
     <use style="fill:#2ca02c;stroke:#2ca02c;" x="100.335139" xlink:href="#ma8e1670541" y="287.58368"/>
     <use style="fill:#2ca02c;stroke:#2ca02c;" x="106.960742" xlink:href="#ma8e1670541" y="295.488"/>
     <use style="fill:#2ca02c;stroke:#2ca02c;" x="113.586345" xlink:href="#ma8e1670541" y="267.018492"/>
     <use style="fill:#2ca02c;stroke:#2ca02c;" x="120.211948" xlink:href="#ma8e1670541" y="268.404343"/>
     <use style="fill:#2ca02c;stroke:#2ca02c;" x="126.837551" xlink:href="#ma8e1670541" y="268.530666"/>
     <use style="fill:#2ca02c;stroke:#2ca02c;" x="133.463154" xlink:href="#ma8e1670541" y="267.502343"/>
     <use style="fill:#2ca02c;stroke:#2ca02c;" x="140.088757" xlink:href="#ma8e1670541" y="232.173048"/>
     <use style="fill:#2ca02c;stroke:#2ca02c;" x="146.71436" xlink:href="#ma8e1670541" y="231.363"/>
     <use style="fill:#2ca02c;stroke:#2ca02c;" x="153.339963" xlink:href="#ma8e1670541" y="232.065416"/>
     <use style="fill:#2ca02c;stroke:#2ca02c;" x="159.965566" xlink:href="#ma8e1670541" y="231.681844"/>
     <use style="fill:#2ca02c;stroke:#2ca02c;" x="166.591169" xlink:href="#ma8e1670541" y="233.682406"/>
     <use style="fill:#2ca02c;stroke:#2ca02c;" x="173.216772" xlink:href="#ma8e1670541" y="233.508122"/>
     <use style="fill:#2ca02c;stroke:#2ca02c;" x="179.842375" xlink:href="#ma8e1670541" y="235.206971"/>
     <use style="fill:#2ca02c;stroke:#2ca02c;" x="186.467978" xlink:href="#ma8e1670541" y="233.094157"/>
     <use style="fill:#2ca02c;stroke:#2ca02c;" x="193.093581" xlink:href="#ma8e1670541" y="235.774744"/>
     <use style="fill:#2ca02c;stroke:#2ca02c;" x="199.719184" xlink:href="#ma8e1670541" y="234.125454"/>
     <use style="fill:#2ca02c;stroke:#2ca02c;" x="206.344787" xlink:href="#ma8e1670541" y="172.422408"/>
     <use style="fill:#2ca02c;stroke:#2ca02c;" x="212.97039" xlink:href="#ma8e1670541" y="172.352605"/>
     <use style="fill:#2ca02c;stroke:#2ca02c;" x="219.595993" xlink:href="#ma8e1670541" y="172.107598"/>
     <use style="fill:#2ca02c;stroke:#2ca02c;" x="226.221596" xlink:href="#ma8e1670541" y="175.180949"/>
     <use style="fill:#2ca02c;stroke:#2ca02c;" x="232.847199" xlink:href="#ma8e1670541" y="173.641606"/>
     <use style="fill:#2ca02c;stroke:#2ca02c;" x="239.472801" xlink:href="#ma8e1670541" y="172.170709"/>
     <use style="fill:#2ca02c;stroke:#2ca02c;" x="246.098404" xlink:href="#ma8e1670541" y="170.85111"/>
     <use style="fill:#2ca02c;stroke:#2ca02c;" x="252.724007" xlink:href="#ma8e1670541" y="169.142344"/>
     <use style="fill:#2ca02c;stroke:#2ca02c;" x="259.34961" xlink:href="#ma8e1670541" y="172.840742"/>
     <use style="fill:#2ca02c;stroke:#2ca02c;" x="265.975213" xlink:href="#ma8e1670541" y="172.898425"/>
     <use style="fill:#2ca02c;stroke:#2ca02c;" x="272.600816" xlink:href="#ma8e1670541" y="60.901666"/>
     <use style="fill:#2ca02c;stroke:#2ca02c;" x="279.226419" xlink:href="#ma8e1670541" y="66.996875"/>
     <use style="fill:#2ca02c;stroke:#2ca02c;" x="285.852022" xlink:href="#ma8e1670541" y="66.056591"/>
     <use style="fill:#2ca02c;stroke:#2ca02c;" x="292.477625" xlink:href="#ma8e1670541" y="63.174022"/>
     <use style="fill:#2ca02c;stroke:#2ca02c;" x="299.103228" xlink:href="#ma8e1670541" y="66.547906"/>
     <use style="fill:#2ca02c;stroke:#2ca02c;" x="305.728831" xlink:href="#ma8e1670541" y="55.576611"/>
     <use style="fill:#2ca02c;stroke:#2ca02c;" x="312.354434" xlink:href="#ma8e1670541" y="68.148947"/>
     <use style="fill:#2ca02c;stroke:#2ca02c;" x="318.980037" xlink:href="#ma8e1670541" y="60.91137"/>
     <use style="fill:#2ca02c;stroke:#2ca02c;" x="325.60564" xlink:href="#ma8e1670541" y="61.701601"/>
     <use style="fill:#2ca02c;stroke:#2ca02c;" x="332.231243" xlink:href="#ma8e1670541" y="63.825819"/>
     <use style="fill:#2ca02c;stroke:#2ca02c;" x="338.856846" xlink:href="#ma8e1670541" y="59.459508"/>
     <use style="fill:#2ca02c;stroke:#2ca02c;" x="345.482449" xlink:href="#ma8e1670541" y="61.966424"/>
     <use style="fill:#2ca02c;stroke:#2ca02c;" x="352.108052" xlink:href="#ma8e1670541" y="64.344758"/>
     <use style="fill:#2ca02c;stroke:#2ca02c;" x="358.733655" xlink:href="#ma8e1670541" y="56.098896"/>
     <use style="fill:#2ca02c;stroke:#2ca02c;" x="365.359258" xlink:href="#ma8e1670541" y="56.493622"/>
     <use style="fill:#2ca02c;stroke:#2ca02c;" x="371.984861" xlink:href="#ma8e1670541" y="53.568"/>
     <use style="fill:#2ca02c;stroke:#2ca02c;" x="378.610464" xlink:href="#ma8e1670541" y="57.347205"/>
     <use style="fill:#2ca02c;stroke:#2ca02c;" x="385.236067" xlink:href="#ma8e1670541" y="58.855393"/>
     <use style="fill:#2ca02c;stroke:#2ca02c;" x="391.86167" xlink:href="#ma8e1670541" y="61.679889"/>
     <use style="fill:#2ca02c;stroke:#2ca02c;" x="398.487273" xlink:href="#ma8e1670541" y="63.337162"/>
    </g>
   </g>
   <g id="matplotlib.axis_1">
    <g id="xtick_1">
     <g id="line2d_1">
      <defs>
       <path d="M 0 0 
L 0 3.5 
" id="m05dbc87eeb" style="stroke:#000000;stroke-width:0.8;"/>
      </defs>
      <g>
       <use style="stroke:#000000;stroke-width:0.8;" x="73.832727" xlink:href="#m05dbc87eeb" y="307.584"/>
      </g>
     </g>
     <g id="text_1">
      <!-- 0 -->
      <g transform="translate(70.651477 322.182437)scale(0.1 -0.1)">
       <defs>
        <path d="M 2034 4250 
Q 1547 4250 1301 3770 
Q 1056 3291 1056 2328 
Q 1056 1369 1301 889 
Q 1547 409 2034 409 
Q 2525 409 2770 889 
Q 3016 1369 3016 2328 
Q 3016 3291 2770 3770 
Q 2525 4250 2034 4250 
z
M 2034 4750 
Q 2819 4750 3233 4129 
Q 3647 3509 3647 2328 
Q 3647 1150 3233 529 
Q 2819 -91 2034 -91 
Q 1250 -91 836 529 
Q 422 1150 422 2328 
Q 422 3509 836 4129 
Q 1250 4750 2034 4750 
z
" id="DejaVuSans-30" transform="scale(0.015625)"/>
       </defs>
       <use xlink:href="#DejaVuSans-30"/>
      </g>
     </g>
    </g>
    <g id="xtick_2">
     <g id="line2d_2">
      <g>
       <use style="stroke:#000000;stroke-width:0.8;" x="140.088757" xlink:href="#m05dbc87eeb" y="307.584"/>
      </g>
     </g>
     <g id="text_2">
      <!-- 10 -->
      <g transform="translate(133.726257 322.182437)scale(0.1 -0.1)">
       <defs>
        <path d="M 794 531 
L 1825 531 
L 1825 4091 
L 703 3866 
L 703 4441 
L 1819 4666 
L 2450 4666 
L 2450 531 
L 3481 531 
L 3481 0 
L 794 0 
L 794 531 
z
" id="DejaVuSans-31" transform="scale(0.015625)"/>
       </defs>
       <use xlink:href="#DejaVuSans-31"/>
       <use x="63.623047" xlink:href="#DejaVuSans-30"/>
      </g>
     </g>
    </g>
    <g id="xtick_3">
     <g id="line2d_3">
      <g>
       <use style="stroke:#000000;stroke-width:0.8;" x="206.344787" xlink:href="#m05dbc87eeb" y="307.584"/>
      </g>
     </g>
     <g id="text_3">
      <!-- 20 -->
      <g transform="translate(199.982287 322.182437)scale(0.1 -0.1)">
       <defs>
        <path d="M 1228 531 
L 3431 531 
L 3431 0 
L 469 0 
L 469 531 
Q 828 903 1448 1529 
Q 2069 2156 2228 2338 
Q 2531 2678 2651 2914 
Q 2772 3150 2772 3378 
Q 2772 3750 2511 3984 
Q 2250 4219 1831 4219 
Q 1534 4219 1204 4116 
Q 875 4013 500 3803 
L 500 4441 
Q 881 4594 1212 4672 
Q 1544 4750 1819 4750 
Q 2544 4750 2975 4387 
Q 3406 4025 3406 3419 
Q 3406 3131 3298 2873 
Q 3191 2616 2906 2266 
Q 2828 2175 2409 1742 
Q 1991 1309 1228 531 
z
" id="DejaVuSans-32" transform="scale(0.015625)"/>
       </defs>
       <use xlink:href="#DejaVuSans-32"/>
       <use x="63.623047" xlink:href="#DejaVuSans-30"/>
      </g>
     </g>
    </g>
    <g id="xtick_4">
     <g id="line2d_4">
      <g>
       <use style="stroke:#000000;stroke-width:0.8;" x="272.600816" xlink:href="#m05dbc87eeb" y="307.584"/>
      </g>
     </g>
     <g id="text_4">
      <!-- 30 -->
      <g transform="translate(266.238316 322.182437)scale(0.1 -0.1)">
       <defs>
        <path d="M 2597 2516 
Q 3050 2419 3304 2112 
Q 3559 1806 3559 1356 
Q 3559 666 3084 287 
Q 2609 -91 1734 -91 
Q 1441 -91 1130 -33 
Q 819 25 488 141 
L 488 750 
Q 750 597 1062 519 
Q 1375 441 1716 441 
Q 2309 441 2620 675 
Q 2931 909 2931 1356 
Q 2931 1769 2642 2001 
Q 2353 2234 1838 2234 
L 1294 2234 
L 1294 2753 
L 1863 2753 
Q 2328 2753 2575 2939 
Q 2822 3125 2822 3475 
Q 2822 3834 2567 4026 
Q 2313 4219 1838 4219 
Q 1578 4219 1281 4162 
Q 984 4106 628 3988 
L 628 4550 
Q 988 4650 1302 4700 
Q 1616 4750 1894 4750 
Q 2613 4750 3031 4423 
Q 3450 4097 3450 3541 
Q 3450 3153 3228 2886 
Q 3006 2619 2597 2516 
z
" id="DejaVuSans-33" transform="scale(0.015625)"/>
       </defs>
       <use xlink:href="#DejaVuSans-33"/>
       <use x="63.623047" xlink:href="#DejaVuSans-30"/>
      </g>
     </g>
    </g>
    <g id="xtick_5">
     <g id="line2d_5">
      <g>
       <use style="stroke:#000000;stroke-width:0.8;" x="338.856846" xlink:href="#m05dbc87eeb" y="307.584"/>
      </g>
     </g>
     <g id="text_5">
      <!-- 40 -->
      <g transform="translate(332.494346 322.182437)scale(0.1 -0.1)">
       <defs>
        <path d="M 2419 4116 
L 825 1625 
L 2419 1625 
L 2419 4116 
z
M 2253 4666 
L 3047 4666 
L 3047 1625 
L 3713 1625 
L 3713 1100 
L 3047 1100 
L 3047 0 
L 2419 0 
L 2419 1100 
L 313 1100 
L 313 1709 
L 2253 4666 
z
" id="DejaVuSans-34" transform="scale(0.015625)"/>
       </defs>
       <use xlink:href="#DejaVuSans-34"/>
       <use x="63.623047" xlink:href="#DejaVuSans-30"/>
      </g>
     </g>
    </g>
    <g id="xtick_6">
     <g id="line2d_6">
      <g>
       <use style="stroke:#000000;stroke-width:0.8;" x="405.112876" xlink:href="#m05dbc87eeb" y="307.584"/>
      </g>
     </g>
     <g id="text_6">
      <!-- 50 -->
      <g transform="translate(398.750376 322.182437)scale(0.1 -0.1)">
       <defs>
        <path d="M 691 4666 
L 3169 4666 
L 3169 4134 
L 1269 4134 
L 1269 2991 
Q 1406 3038 1543 3061 
Q 1681 3084 1819 3084 
Q 2600 3084 3056 2656 
Q 3513 2228 3513 1497 
Q 3513 744 3044 326 
Q 2575 -91 1722 -91 
Q 1428 -91 1123 -41 
Q 819 9 494 109 
L 494 744 
Q 775 591 1075 516 
Q 1375 441 1709 441 
Q 2250 441 2565 725 
Q 2881 1009 2881 1497 
Q 2881 1984 2565 2268 
Q 2250 2553 1709 2553 
Q 1456 2553 1204 2497 
Q 953 2441 691 2322 
L 691 4666 
z
" id="DejaVuSans-35" transform="scale(0.015625)"/>
       </defs>
       <use xlink:href="#DejaVuSans-35"/>
       <use x="63.623047" xlink:href="#DejaVuSans-30"/>
      </g>
     </g>
    </g>
    <g id="text_7">
     <!--  -&gt; x axis: ethanol pure measurements. each measurement has 50k data points. -->
     <g transform="translate(33.8725 335.860562)scale(0.1 -0.1)">
      <defs>
       <path id="DejaVuSans-20" transform="scale(0.015625)"/>
       <path d="M 313 2009 
L 1997 2009 
L 1997 1497 
L 313 1497 
L 313 2009 
z
" id="DejaVuSans-2d" transform="scale(0.015625)"/>
       <path d="M 678 3150 
L 678 3719 
L 4684 2266 
L 4684 1747 
L 678 294 
L 678 863 
L 3897 2003 
L 678 3150 
z
" id="DejaVuSans-3e" transform="scale(0.015625)"/>
       <path d="M 3513 3500 
L 2247 1797 
L 3578 0 
L 2900 0 
L 1881 1375 
L 863 0 
L 184 0 
L 1544 1831 
L 300 3500 
L 978 3500 
L 1906 2253 
L 2834 3500 
L 3513 3500 
z
" id="DejaVuSans-78" transform="scale(0.015625)"/>
       <path d="M 2194 1759 
Q 1497 1759 1228 1600 
Q 959 1441 959 1056 
Q 959 750 1161 570 
Q 1363 391 1709 391 
Q 2188 391 2477 730 
Q 2766 1069 2766 1631 
L 2766 1759 
L 2194 1759 
z
M 3341 1997 
L 3341 0 
L 2766 0 
L 2766 531 
Q 2569 213 2275 61 
Q 1981 -91 1556 -91 
Q 1019 -91 701 211 
Q 384 513 384 1019 
Q 384 1609 779 1909 
Q 1175 2209 1959 2209 
L 2766 2209 
L 2766 2266 
Q 2766 2663 2505 2880 
Q 2244 3097 1772 3097 
Q 1472 3097 1187 3025 
Q 903 2953 641 2809 
L 641 3341 
Q 956 3463 1253 3523 
Q 1550 3584 1831 3584 
Q 2591 3584 2966 3190 
Q 3341 2797 3341 1997 
z
" id="DejaVuSans-61" transform="scale(0.015625)"/>
       <path d="M 603 3500 
L 1178 3500 
L 1178 0 
L 603 0 
L 603 3500 
z
M 603 4863 
L 1178 4863 
L 1178 4134 
L 603 4134 
L 603 4863 
z
" id="DejaVuSans-69" transform="scale(0.015625)"/>
       <path d="M 2834 3397 
L 2834 2853 
Q 2591 2978 2328 3040 
Q 2066 3103 1784 3103 
Q 1356 3103 1142 2972 
Q 928 2841 928 2578 
Q 928 2378 1081 2264 
Q 1234 2150 1697 2047 
L 1894 2003 
Q 2506 1872 2764 1633 
Q 3022 1394 3022 966 
Q 3022 478 2636 193 
Q 2250 -91 1575 -91 
Q 1294 -91 989 -36 
Q 684 19 347 128 
L 347 722 
Q 666 556 975 473 
Q 1284 391 1588 391 
Q 1994 391 2212 530 
Q 2431 669 2431 922 
Q 2431 1156 2273 1281 
Q 2116 1406 1581 1522 
L 1381 1569 
Q 847 1681 609 1914 
Q 372 2147 372 2553 
Q 372 3047 722 3315 
Q 1072 3584 1716 3584 
Q 2034 3584 2315 3537 
Q 2597 3491 2834 3397 
z
" id="DejaVuSans-73" transform="scale(0.015625)"/>
       <path d="M 750 794 
L 1409 794 
L 1409 0 
L 750 0 
L 750 794 
z
M 750 3309 
L 1409 3309 
L 1409 2516 
L 750 2516 
L 750 3309 
z
" id="DejaVuSans-3a" transform="scale(0.015625)"/>
       <path d="M 3597 1894 
L 3597 1613 
L 953 1613 
Q 991 1019 1311 708 
Q 1631 397 2203 397 
Q 2534 397 2845 478 
Q 3156 559 3463 722 
L 3463 178 
Q 3153 47 2828 -22 
Q 2503 -91 2169 -91 
Q 1331 -91 842 396 
Q 353 884 353 1716 
Q 353 2575 817 3079 
Q 1281 3584 2069 3584 
Q 2775 3584 3186 3129 
Q 3597 2675 3597 1894 
z
M 3022 2063 
Q 3016 2534 2758 2815 
Q 2500 3097 2075 3097 
Q 1594 3097 1305 2825 
Q 1016 2553 972 2059 
L 3022 2063 
z
" id="DejaVuSans-65" transform="scale(0.015625)"/>
       <path d="M 1172 4494 
L 1172 3500 
L 2356 3500 
L 2356 3053 
L 1172 3053 
L 1172 1153 
Q 1172 725 1289 603 
Q 1406 481 1766 481 
L 2356 481 
L 2356 0 
L 1766 0 
Q 1100 0 847 248 
Q 594 497 594 1153 
L 594 3053 
L 172 3053 
L 172 3500 
L 594 3500 
L 594 4494 
L 1172 4494 
z
" id="DejaVuSans-74" transform="scale(0.015625)"/>
       <path d="M 3513 2113 
L 3513 0 
L 2938 0 
L 2938 2094 
Q 2938 2591 2744 2837 
Q 2550 3084 2163 3084 
Q 1697 3084 1428 2787 
Q 1159 2491 1159 1978 
L 1159 0 
L 581 0 
L 581 4863 
L 1159 4863 
L 1159 2956 
Q 1366 3272 1645 3428 
Q 1925 3584 2291 3584 
Q 2894 3584 3203 3211 
Q 3513 2838 3513 2113 
z
" id="DejaVuSans-68" transform="scale(0.015625)"/>
       <path d="M 3513 2113 
L 3513 0 
L 2938 0 
L 2938 2094 
Q 2938 2591 2744 2837 
Q 2550 3084 2163 3084 
Q 1697 3084 1428 2787 
Q 1159 2491 1159 1978 
L 1159 0 
L 581 0 
L 581 3500 
L 1159 3500 
L 1159 2956 
Q 1366 3272 1645 3428 
Q 1925 3584 2291 3584 
Q 2894 3584 3203 3211 
Q 3513 2838 3513 2113 
z
" id="DejaVuSans-6e" transform="scale(0.015625)"/>
       <path d="M 1959 3097 
Q 1497 3097 1228 2736 
Q 959 2375 959 1747 
Q 959 1119 1226 758 
Q 1494 397 1959 397 
Q 2419 397 2687 759 
Q 2956 1122 2956 1747 
Q 2956 2369 2687 2733 
Q 2419 3097 1959 3097 
z
M 1959 3584 
Q 2709 3584 3137 3096 
Q 3566 2609 3566 1747 
Q 3566 888 3137 398 
Q 2709 -91 1959 -91 
Q 1206 -91 779 398 
Q 353 888 353 1747 
Q 353 2609 779 3096 
Q 1206 3584 1959 3584 
z
" id="DejaVuSans-6f" transform="scale(0.015625)"/>
       <path d="M 603 4863 
L 1178 4863 
L 1178 0 
L 603 0 
L 603 4863 
z
" id="DejaVuSans-6c" transform="scale(0.015625)"/>
       <path d="M 1159 525 
L 1159 -1331 
L 581 -1331 
L 581 3500 
L 1159 3500 
L 1159 2969 
Q 1341 3281 1617 3432 
Q 1894 3584 2278 3584 
Q 2916 3584 3314 3078 
Q 3713 2572 3713 1747 
Q 3713 922 3314 415 
Q 2916 -91 2278 -91 
Q 1894 -91 1617 61 
Q 1341 213 1159 525 
z
M 3116 1747 
Q 3116 2381 2855 2742 
Q 2594 3103 2138 3103 
Q 1681 3103 1420 2742 
Q 1159 2381 1159 1747 
Q 1159 1113 1420 752 
Q 1681 391 2138 391 
Q 2594 391 2855 752 
Q 3116 1113 3116 1747 
z
" id="DejaVuSans-70" transform="scale(0.015625)"/>
       <path d="M 544 1381 
L 544 3500 
L 1119 3500 
L 1119 1403 
Q 1119 906 1312 657 
Q 1506 409 1894 409 
Q 2359 409 2629 706 
Q 2900 1003 2900 1516 
L 2900 3500 
L 3475 3500 
L 3475 0 
L 2900 0 
L 2900 538 
Q 2691 219 2414 64 
Q 2138 -91 1772 -91 
Q 1169 -91 856 284 
Q 544 659 544 1381 
z
M 1991 3584 
L 1991 3584 
z
" id="DejaVuSans-75" transform="scale(0.015625)"/>
       <path d="M 2631 2963 
Q 2534 3019 2420 3045 
Q 2306 3072 2169 3072 
Q 1681 3072 1420 2755 
Q 1159 2438 1159 1844 
L 1159 0 
L 581 0 
L 581 3500 
L 1159 3500 
L 1159 2956 
Q 1341 3275 1631 3429 
Q 1922 3584 2338 3584 
Q 2397 3584 2469 3576 
Q 2541 3569 2628 3553 
L 2631 2963 
z
" id="DejaVuSans-72" transform="scale(0.015625)"/>
       <path d="M 3328 2828 
Q 3544 3216 3844 3400 
Q 4144 3584 4550 3584 
Q 5097 3584 5394 3201 
Q 5691 2819 5691 2113 
L 5691 0 
L 5113 0 
L 5113 2094 
Q 5113 2597 4934 2840 
Q 4756 3084 4391 3084 
Q 3944 3084 3684 2787 
Q 3425 2491 3425 1978 
L 3425 0 
L 2847 0 
L 2847 2094 
Q 2847 2600 2669 2842 
Q 2491 3084 2119 3084 
Q 1678 3084 1418 2786 
Q 1159 2488 1159 1978 
L 1159 0 
L 581 0 
L 581 3500 
L 1159 3500 
L 1159 2956 
Q 1356 3278 1631 3431 
Q 1906 3584 2284 3584 
Q 2666 3584 2933 3390 
Q 3200 3197 3328 2828 
z
" id="DejaVuSans-6d" transform="scale(0.015625)"/>
       <path d="M 684 794 
L 1344 794 
L 1344 0 
L 684 0 
L 684 794 
z
" id="DejaVuSans-2e" transform="scale(0.015625)"/>
       <path d="M 3122 3366 
L 3122 2828 
Q 2878 2963 2633 3030 
Q 2388 3097 2138 3097 
Q 1578 3097 1268 2742 
Q 959 2388 959 1747 
Q 959 1106 1268 751 
Q 1578 397 2138 397 
Q 2388 397 2633 464 
Q 2878 531 3122 666 
L 3122 134 
Q 2881 22 2623 -34 
Q 2366 -91 2075 -91 
Q 1284 -91 818 406 
Q 353 903 353 1747 
Q 353 2603 823 3093 
Q 1294 3584 2113 3584 
Q 2378 3584 2631 3529 
Q 2884 3475 3122 3366 
z
" id="DejaVuSans-63" transform="scale(0.015625)"/>
       <path d="M 581 4863 
L 1159 4863 
L 1159 1991 
L 2875 3500 
L 3609 3500 
L 1753 1863 
L 3688 0 
L 2938 0 
L 1159 1709 
L 1159 0 
L 581 0 
L 581 4863 
z
" id="DejaVuSans-6b" transform="scale(0.015625)"/>
       <path d="M 2906 2969 
L 2906 4863 
L 3481 4863 
L 3481 0 
L 2906 0 
L 2906 525 
Q 2725 213 2448 61 
Q 2172 -91 1784 -91 
Q 1150 -91 751 415 
Q 353 922 353 1747 
Q 353 2572 751 3078 
Q 1150 3584 1784 3584 
Q 2172 3584 2448 3432 
Q 2725 3281 2906 2969 
z
M 947 1747 
Q 947 1113 1208 752 
Q 1469 391 1925 391 
Q 2381 391 2643 752 
Q 2906 1113 2906 1747 
Q 2906 2381 2643 2742 
Q 2381 3103 1925 3103 
Q 1469 3103 1208 2742 
Q 947 2381 947 1747 
z
" id="DejaVuSans-64" transform="scale(0.015625)"/>
      </defs>
      <use xlink:href="#DejaVuSans-20"/>
      <use x="31.787109" xlink:href="#DejaVuSans-2d"/>
      <use x="67.871094" xlink:href="#DejaVuSans-3e"/>
      <use x="151.660156" xlink:href="#DejaVuSans-20"/>
      <use x="183.447266" xlink:href="#DejaVuSans-78"/>
      <use x="242.626953" xlink:href="#DejaVuSans-20"/>
      <use x="274.414062" xlink:href="#DejaVuSans-61"/>
      <use x="335.693359" xlink:href="#DejaVuSans-78"/>
      <use x="394.873047" xlink:href="#DejaVuSans-69"/>
      <use x="422.65625" xlink:href="#DejaVuSans-73"/>
      <use x="474.755859" xlink:href="#DejaVuSans-3a"/>
      <use x="508.447266" xlink:href="#DejaVuSans-20"/>
      <use x="540.234375" xlink:href="#DejaVuSans-65"/>
      <use x="601.757812" xlink:href="#DejaVuSans-74"/>
      <use x="640.966797" xlink:href="#DejaVuSans-68"/>
      <use x="704.345703" xlink:href="#DejaVuSans-61"/>
      <use x="765.625" xlink:href="#DejaVuSans-6e"/>
      <use x="829.003906" xlink:href="#DejaVuSans-6f"/>
      <use x="890.185547" xlink:href="#DejaVuSans-6c"/>
      <use x="917.96875" xlink:href="#DejaVuSans-20"/>
      <use x="949.755859" xlink:href="#DejaVuSans-70"/>
      <use x="1013.232422" xlink:href="#DejaVuSans-75"/>
      <use x="1076.611328" xlink:href="#DejaVuSans-72"/>
      <use x="1115.474609" xlink:href="#DejaVuSans-65"/>
      <use x="1176.998047" xlink:href="#DejaVuSans-20"/>
      <use x="1208.785156" xlink:href="#DejaVuSans-6d"/>
      <use x="1306.197266" xlink:href="#DejaVuSans-65"/>
      <use x="1367.720703" xlink:href="#DejaVuSans-61"/>
      <use x="1429" xlink:href="#DejaVuSans-73"/>
      <use x="1481.099609" xlink:href="#DejaVuSans-75"/>
      <use x="1544.478516" xlink:href="#DejaVuSans-72"/>
      <use x="1583.341797" xlink:href="#DejaVuSans-65"/>
      <use x="1644.865234" xlink:href="#DejaVuSans-6d"/>
      <use x="1742.277344" xlink:href="#DejaVuSans-65"/>
      <use x="1803.800781" xlink:href="#DejaVuSans-6e"/>
      <use x="1867.179688" xlink:href="#DejaVuSans-74"/>
      <use x="1906.388672" xlink:href="#DejaVuSans-73"/>
      <use x="1958.488281" xlink:href="#DejaVuSans-2e"/>
      <use x="1990.275391" xlink:href="#DejaVuSans-20"/>
      <use x="2022.0625" xlink:href="#DejaVuSans-65"/>
      <use x="2083.585938" xlink:href="#DejaVuSans-61"/>
      <use x="2144.865234" xlink:href="#DejaVuSans-63"/>
      <use x="2199.845703" xlink:href="#DejaVuSans-68"/>
      <use x="2263.224609" xlink:href="#DejaVuSans-20"/>
      <use x="2295.011719" xlink:href="#DejaVuSans-6d"/>
      <use x="2392.423828" xlink:href="#DejaVuSans-65"/>
      <use x="2453.947266" xlink:href="#DejaVuSans-61"/>
      <use x="2515.226562" xlink:href="#DejaVuSans-73"/>
      <use x="2567.326172" xlink:href="#DejaVuSans-75"/>
      <use x="2630.705078" xlink:href="#DejaVuSans-72"/>
      <use x="2669.568359" xlink:href="#DejaVuSans-65"/>
      <use x="2731.091797" xlink:href="#DejaVuSans-6d"/>
      <use x="2828.503906" xlink:href="#DejaVuSans-65"/>
      <use x="2890.027344" xlink:href="#DejaVuSans-6e"/>
      <use x="2953.40625" xlink:href="#DejaVuSans-74"/>
      <use x="2992.615234" xlink:href="#DejaVuSans-20"/>
      <use x="3024.402344" xlink:href="#DejaVuSans-68"/>
      <use x="3087.78125" xlink:href="#DejaVuSans-61"/>
      <use x="3149.060547" xlink:href="#DejaVuSans-73"/>
      <use x="3201.160156" xlink:href="#DejaVuSans-20"/>
      <use x="3232.947266" xlink:href="#DejaVuSans-35"/>
      <use x="3296.570312" xlink:href="#DejaVuSans-30"/>
      <use x="3360.193359" xlink:href="#DejaVuSans-6b"/>
      <use x="3418.103516" xlink:href="#DejaVuSans-20"/>
      <use x="3449.890625" xlink:href="#DejaVuSans-64"/>
      <use x="3513.367188" xlink:href="#DejaVuSans-61"/>
      <use x="3574.646484" xlink:href="#DejaVuSans-74"/>
      <use x="3613.855469" xlink:href="#DejaVuSans-61"/>
      <use x="3675.134766" xlink:href="#DejaVuSans-20"/>
      <use x="3706.921875" xlink:href="#DejaVuSans-70"/>
      <use x="3770.398438" xlink:href="#DejaVuSans-6f"/>
      <use x="3831.580078" xlink:href="#DejaVuSans-69"/>
      <use x="3859.363281" xlink:href="#DejaVuSans-6e"/>
      <use x="3922.742188" xlink:href="#DejaVuSans-74"/>
      <use x="3961.951172" xlink:href="#DejaVuSans-73"/>
      <use x="4014.050781" xlink:href="#DejaVuSans-2e"/>
     </g>
    </g>
   </g>
   <g id="matplotlib.axis_2">
    <g id="ytick_1">
     <g id="line2d_7">
      <defs>
       <path d="M 0 0 
L -3.5 0 
" id="m9da04bf0a1" style="stroke:#000000;stroke-width:0.8;"/>
      </defs>
      <g>
       <use style="stroke:#000000;stroke-width:0.8;" x="57.6" xlink:href="#m9da04bf0a1" y="275.407352"/>
      </g>
     </g>
     <g id="text_8">
      <!-- 10 -->
      <g style="fill:#2ca02c;" transform="translate(37.875 279.20657)scale(0.1 -0.1)">
       <use xlink:href="#DejaVuSans-31"/>
       <use x="63.623047" xlink:href="#DejaVuSans-30"/>
      </g>
     </g>
    </g>
    <g id="ytick_2">
     <g id="line2d_8">
      <g>
       <use style="stroke:#000000;stroke-width:0.8;" x="57.6" xlink:href="#m9da04bf0a1" y="226.676609"/>
      </g>
     </g>
     <g id="text_9">
      <!-- 15 -->
      <g style="fill:#2ca02c;" transform="translate(37.875 230.475828)scale(0.1 -0.1)">
       <use xlink:href="#DejaVuSans-31"/>
       <use x="63.623047" xlink:href="#DejaVuSans-35"/>
      </g>
     </g>
    </g>
    <g id="ytick_3">
     <g id="line2d_9">
      <g>
       <use style="stroke:#000000;stroke-width:0.8;" x="57.6" xlink:href="#m9da04bf0a1" y="177.945866"/>
      </g>
     </g>
     <g id="text_10">
      <!-- 20 -->
      <g style="fill:#2ca02c;" transform="translate(37.875 181.745085)scale(0.1 -0.1)">
       <use xlink:href="#DejaVuSans-32"/>
       <use x="63.623047" xlink:href="#DejaVuSans-30"/>
      </g>
     </g>
    </g>
    <g id="ytick_4">
     <g id="line2d_10">
      <g>
       <use style="stroke:#000000;stroke-width:0.8;" x="57.6" xlink:href="#m9da04bf0a1" y="129.215124"/>
      </g>
     </g>
     <g id="text_11">
      <!-- 25 -->
      <g style="fill:#2ca02c;" transform="translate(37.875 133.014343)scale(0.1 -0.1)">
       <use xlink:href="#DejaVuSans-32"/>
       <use x="63.623047" xlink:href="#DejaVuSans-35"/>
      </g>
     </g>
    </g>
    <g id="ytick_5">
     <g id="line2d_11">
      <g>
       <use style="stroke:#000000;stroke-width:0.8;" x="57.6" xlink:href="#m9da04bf0a1" y="80.484381"/>
      </g>
     </g>
     <g id="text_12">
      <!-- 30 -->
      <g style="fill:#2ca02c;" transform="translate(37.875 84.2836)scale(0.1 -0.1)">
       <use xlink:href="#DejaVuSans-33"/>
       <use x="63.623047" xlink:href="#DejaVuSans-30"/>
      </g>
     </g>
    </g>
    <g id="text_13">
     <!--  mean&gt;5  -->
     <g style="fill:#2ca02c;" transform="translate(31.795312 199.256906)rotate(-90)scale(0.1 -0.1)">
      <use xlink:href="#DejaVuSans-20"/>
      <use x="31.787109" xlink:href="#DejaVuSans-6d"/>
      <use x="129.199219" xlink:href="#DejaVuSans-65"/>
      <use x="190.722656" xlink:href="#DejaVuSans-61"/>
      <use x="252.001953" xlink:href="#DejaVuSans-6e"/>
      <use x="315.380859" xlink:href="#DejaVuSans-3e"/>
      <use x="399.169922" xlink:href="#DejaVuSans-35"/>
      <use x="462.792969" xlink:href="#DejaVuSans-20"/>
     </g>
    </g>
   </g>
   <g id="patch_3">
    <path d="M 57.6 307.584 
L 57.6 41.472 
" style="fill:none;stroke:#000000;stroke-linecap:square;stroke-linejoin:miter;stroke-width:0.8;"/>
   </g>
   <g id="patch_4">
    <path d="M 414.72 307.584 
L 414.72 41.472 
" style="fill:none;stroke:#000000;stroke-linecap:square;stroke-linejoin:miter;stroke-width:0.8;"/>
   </g>
   <g id="patch_5">
    <path d="M 57.6 307.584 
L 414.72 307.584 
" style="fill:none;stroke:#000000;stroke-linecap:square;stroke-linejoin:miter;stroke-width:0.8;"/>
   </g>
   <g id="patch_6">
    <path d="M 57.6 41.472 
L 414.72 41.472 
" style="fill:none;stroke:#000000;stroke-linecap:square;stroke-linejoin:miter;stroke-width:0.8;"/>
   </g>
  </g>
  <g id="axes_2">
   <g id="PathCollection_2">
    <defs>
     <path d="M 0 3 
C 0.795609 3 1.55874 2.683901 2.12132 2.12132 
C 2.683901 1.55874 3 0.795609 3 0 
C 3 -0.795609 2.683901 -1.55874 2.12132 -2.12132 
C 1.55874 -2.683901 0.795609 -3 0 -3 
C -0.795609 -3 -1.55874 -2.683901 -2.12132 -2.12132 
C -2.683901 -1.55874 -3 -0.795609 -3 0 
C -3 0.795609 -2.683901 1.55874 -2.12132 2.12132 
C -1.55874 2.683901 -0.795609 3 0 3 
z
" id="m0e346f128c" style="stroke:#9467bd;"/>
    </defs>
    <g clip-path="url(#pb19f8a3d45)">
     <use style="fill:#9467bd;stroke:#9467bd;" x="73.832727" xlink:href="#m0e346f128c" y="233.982915"/>
     <use style="fill:#9467bd;stroke:#9467bd;" x="80.45833" xlink:href="#m0e346f128c" y="272.936139"/>
     <use style="fill:#9467bd;stroke:#9467bd;" x="87.083933" xlink:href="#m0e346f128c" y="274.98631"/>
     <use style="fill:#9467bd;stroke:#9467bd;" x="93.709536" xlink:href="#m0e346f128c" y="281.136814"/>
     <use style="fill:#9467bd;stroke:#9467bd;" x="100.335139" xlink:href="#m0e346f128c" y="289.337493"/>
     <use style="fill:#9467bd;stroke:#9467bd;" x="106.960742" xlink:href="#m0e346f128c" y="295.488"/>
     <use style="fill:#9467bd;stroke:#9467bd;" x="113.586345" xlink:href="#m0e346f128c" y="281.136814"/>
     <use style="fill:#9467bd;stroke:#9467bd;" x="120.211948" xlink:href="#m0e346f128c" y="281.136814"/>
     <use style="fill:#9467bd;stroke:#9467bd;" x="126.837551" xlink:href="#m0e346f128c" y="281.136814"/>
     <use style="fill:#9467bd;stroke:#9467bd;" x="133.463154" xlink:href="#m0e346f128c" y="279.086646"/>
     <use style="fill:#9467bd;stroke:#9467bd;" x="140.088757" xlink:href="#m0e346f128c" y="252.434445"/>
     <use style="fill:#9467bd;stroke:#9467bd;" x="146.71436" xlink:href="#m0e346f128c" y="252.434445"/>
     <use style="fill:#9467bd;stroke:#9467bd;" x="153.339963" xlink:href="#m0e346f128c" y="252.434445"/>
     <use style="fill:#9467bd;stroke:#9467bd;" x="159.965566" xlink:href="#m0e346f128c" y="252.434445"/>
     <use style="fill:#9467bd;stroke:#9467bd;" x="166.591169" xlink:href="#m0e346f128c" y="252.434445"/>
     <use style="fill:#9467bd;stroke:#9467bd;" x="173.216772" xlink:href="#m0e346f128c" y="252.434445"/>
     <use style="fill:#9467bd;stroke:#9467bd;" x="179.842375" xlink:href="#m0e346f128c" y="254.484609"/>
     <use style="fill:#9467bd;stroke:#9467bd;" x="186.467978" xlink:href="#m0e346f128c" y="252.434445"/>
     <use style="fill:#9467bd;stroke:#9467bd;" x="193.093581" xlink:href="#m0e346f128c" y="254.484609"/>
     <use style="fill:#9467bd;stroke:#9467bd;" x="199.719184" xlink:href="#m0e346f128c" y="252.434445"/>
     <use style="fill:#9467bd;stroke:#9467bd;" x="206.344787" xlink:href="#m0e346f128c" y="172.477834"/>
     <use style="fill:#9467bd;stroke:#9467bd;" x="212.97039" xlink:href="#m0e346f128c" y="172.477834"/>
     <use style="fill:#9467bd;stroke:#9467bd;" x="219.595993" xlink:href="#m0e346f128c" y="172.477834"/>
     <use style="fill:#9467bd;stroke:#9467bd;" x="226.221596" xlink:href="#m0e346f128c" y="176.578178"/>
     <use style="fill:#9467bd;stroke:#9467bd;" x="232.847199" xlink:href="#m0e346f128c" y="174.528014"/>
     <use style="fill:#9467bd;stroke:#9467bd;" x="239.472801" xlink:href="#m0e346f128c" y="172.477834"/>
     <use style="fill:#9467bd;stroke:#9467bd;" x="246.098404" xlink:href="#m0e346f128c" y="172.477834"/>
     <use style="fill:#9467bd;stroke:#9467bd;" x="252.724007" xlink:href="#m0e346f128c" y="170.42767"/>
     <use style="fill:#9467bd;stroke:#9467bd;" x="259.34961" xlink:href="#m0e346f128c" y="174.528014"/>
     <use style="fill:#9467bd;stroke:#9467bd;" x="265.975213" xlink:href="#m0e346f128c" y="174.528014"/>
     <use style="fill:#9467bd;stroke:#9467bd;" x="272.600816" xlink:href="#m0e346f128c" y="108.922581"/>
     <use style="fill:#9467bd;stroke:#9467bd;" x="279.226419" xlink:href="#m0e346f128c" y="110.972745"/>
     <use style="fill:#9467bd;stroke:#9467bd;" x="285.852022" xlink:href="#m0e346f128c" y="110.972745"/>
     <use style="fill:#9467bd;stroke:#9467bd;" x="292.477625" xlink:href="#m0e346f128c" y="110.972745"/>
     <use style="fill:#9467bd;stroke:#9467bd;" x="299.103228" xlink:href="#m0e346f128c" y="108.922581"/>
     <use style="fill:#9467bd;stroke:#9467bd;" x="305.728831" xlink:href="#m0e346f128c" y="102.772074"/>
     <use style="fill:#9467bd;stroke:#9467bd;" x="312.354434" xlink:href="#m0e346f128c" y="115.073089"/>
     <use style="fill:#9467bd;stroke:#9467bd;" x="318.980037" xlink:href="#m0e346f128c" y="102.772074"/>
     <use style="fill:#9467bd;stroke:#9467bd;" x="325.60564" xlink:href="#m0e346f128c" y="104.822254"/>
     <use style="fill:#9467bd;stroke:#9467bd;" x="332.231243" xlink:href="#m0e346f128c" y="106.872402"/>
     <use style="fill:#9467bd;stroke:#9467bd;" x="338.856846" xlink:href="#m0e346f128c" y="55.618164"/>
     <use style="fill:#9467bd;stroke:#9467bd;" x="345.482449" xlink:href="#m0e346f128c" y="63.818851"/>
     <use style="fill:#9467bd;stroke:#9467bd;" x="352.108052" xlink:href="#m0e346f128c" y="65.869015"/>
     <use style="fill:#9467bd;stroke:#9467bd;" x="358.733655" xlink:href="#m0e346f128c" y="53.568"/>
     <use style="fill:#9467bd;stroke:#9467bd;" x="365.359258" xlink:href="#m0e346f128c" y="53.568"/>
     <use style="fill:#9467bd;stroke:#9467bd;" x="371.984861" xlink:href="#m0e346f128c" y="53.568"/>
     <use style="fill:#9467bd;stroke:#9467bd;" x="378.610464" xlink:href="#m0e346f128c" y="59.718523"/>
     <use style="fill:#9467bd;stroke:#9467bd;" x="385.236067" xlink:href="#m0e346f128c" y="57.668328"/>
     <use style="fill:#9467bd;stroke:#9467bd;" x="391.86167" xlink:href="#m0e346f128c" y="65.869015"/>
     <use style="fill:#9467bd;stroke:#9467bd;" x="398.487273" xlink:href="#m0e346f128c" y="65.869015"/>
    </g>
   </g>
   <g id="matplotlib.axis_3">
    <g id="ytick_6">
     <g id="line2d_12">
      <defs>
       <path d="M 0 0 
L 3.5 0 
" id="md280cf0a2e" style="stroke:#000000;stroke-width:0.8;"/>
      </defs>
      <g>
       <use style="stroke:#000000;stroke-width:0.8;" x="414.72" xlink:href="#md280cf0a2e" y="299.84461"/>
      </g>
     </g>
     <g id="text_14">
      <!-- 5 -->
      <g style="fill:#9467bd;" transform="translate(421.72 303.643829)scale(0.1 -0.1)">
       <use xlink:href="#DejaVuSans-35"/>
      </g>
     </g>
    </g>
    <g id="ytick_7">
     <g id="line2d_13">
      <g>
       <use style="stroke:#000000;stroke-width:0.8;" x="414.72" xlink:href="#md280cf0a2e" y="259.097493"/>
      </g>
     </g>
     <g id="text_15">
      <!-- 10 -->
      <g style="fill:#9467bd;" transform="translate(421.72 262.896712)scale(0.1 -0.1)">
       <use xlink:href="#DejaVuSans-31"/>
       <use x="63.623047" xlink:href="#DejaVuSans-30"/>
      </g>
     </g>
    </g>
    <g id="ytick_8">
     <g id="line2d_14">
      <g>
       <use style="stroke:#000000;stroke-width:0.8;" x="414.72" xlink:href="#md280cf0a2e" y="218.350376"/>
      </g>
     </g>
     <g id="text_16">
      <!-- 15 -->
      <g style="fill:#9467bd;" transform="translate(421.72 222.149595)scale(0.1 -0.1)">
       <use xlink:href="#DejaVuSans-31"/>
       <use x="63.623047" xlink:href="#DejaVuSans-35"/>
      </g>
     </g>
    </g>
    <g id="ytick_9">
     <g id="line2d_15">
      <g>
       <use style="stroke:#000000;stroke-width:0.8;" x="414.72" xlink:href="#md280cf0a2e" y="177.603259"/>
      </g>
     </g>
     <g id="text_17">
      <!-- 20 -->
      <g style="fill:#9467bd;" transform="translate(421.72 181.402478)scale(0.1 -0.1)">
       <use xlink:href="#DejaVuSans-32"/>
       <use x="63.623047" xlink:href="#DejaVuSans-30"/>
      </g>
     </g>
    </g>
    <g id="ytick_10">
     <g id="line2d_16">
      <g>
       <use style="stroke:#000000;stroke-width:0.8;" x="414.72" xlink:href="#md280cf0a2e" y="136.856143"/>
      </g>
     </g>
     <g id="text_18">
      <!-- 25 -->
      <g style="fill:#9467bd;" transform="translate(421.72 140.655361)scale(0.1 -0.1)">
       <use xlink:href="#DejaVuSans-32"/>
       <use x="63.623047" xlink:href="#DejaVuSans-35"/>
      </g>
     </g>
    </g>
    <g id="ytick_11">
     <g id="line2d_17">
      <g>
       <use style="stroke:#000000;stroke-width:0.8;" x="414.72" xlink:href="#md280cf0a2e" y="96.109026"/>
      </g>
     </g>
     <g id="text_19">
      <!-- 30 -->
      <g style="fill:#9467bd;" transform="translate(421.72 99.908245)scale(0.1 -0.1)">
       <use xlink:href="#DejaVuSans-33"/>
       <use x="63.623047" xlink:href="#DejaVuSans-30"/>
      </g>
     </g>
    </g>
    <g id="ytick_12">
     <g id="line2d_18">
      <g>
       <use style="stroke:#000000;stroke-width:0.8;" x="414.72" xlink:href="#md280cf0a2e" y="55.361909"/>
      </g>
     </g>
     <g id="text_20">
      <!-- 35 -->
      <g style="fill:#9467bd;" transform="translate(421.72 59.161128)scale(0.1 -0.1)">
       <use xlink:href="#DejaVuSans-33"/>
       <use x="63.623047" xlink:href="#DejaVuSans-35"/>
      </g>
     </g>
    </g>
    <g id="text_21">
     <!--  med&gt;0  -->
     <g style="fill:#9467bd;" transform="translate(446.043438 196.198312)rotate(-90)scale(0.1 -0.1)">
      <use xlink:href="#DejaVuSans-20"/>
      <use x="31.787109" xlink:href="#DejaVuSans-6d"/>
      <use x="129.199219" xlink:href="#DejaVuSans-65"/>
      <use x="190.722656" xlink:href="#DejaVuSans-64"/>
      <use x="254.199219" xlink:href="#DejaVuSans-3e"/>
      <use x="337.988281" xlink:href="#DejaVuSans-30"/>
      <use x="401.611328" xlink:href="#DejaVuSans-20"/>
     </g>
    </g>
   </g>
   <g id="patch_7">
    <path d="M 57.6 307.584 
L 57.6 41.472 
" style="fill:none;stroke:#000000;stroke-linecap:square;stroke-linejoin:miter;stroke-width:0.8;"/>
   </g>
   <g id="patch_8">
    <path d="M 414.72 307.584 
L 414.72 41.472 
" style="fill:none;stroke:#000000;stroke-linecap:square;stroke-linejoin:miter;stroke-width:0.8;"/>
   </g>
   <g id="patch_9">
    <path d="M 57.6 307.584 
L 414.72 307.584 
" style="fill:none;stroke:#000000;stroke-linecap:square;stroke-linejoin:miter;stroke-width:0.8;"/>
   </g>
   <g id="patch_10">
    <path d="M 57.6 41.472 
L 414.72 41.472 
" style="fill:none;stroke:#000000;stroke-linecap:square;stroke-linejoin:miter;stroke-width:0.8;"/>
   </g>
  </g>
 </g>
 <defs>
  <clipPath id="pb19f8a3d45">
   <rect height="266.112" width="357.12" x="57.6" y="41.472"/>
  </clipPath>
 </defs>
</svg>
