<?xml version="1.0" encoding="utf-8" standalone="no"?>
<!DOCTYPE svg PUBLIC "-//W3C//DTD SVG 1.1//EN"
  "http://www.w3.org/Graphics/SVG/1.1/DTD/svg11.dtd">
<svg height="345.6pt" version="1.1" viewBox="0 0 460.8 345.6" width="460.8pt" xmlns="http://www.w3.org/2000/svg" xmlns:xlink="http://www.w3.org/1999/xlink">
 <metadata>
  <rdf:RDF xmlns:cc="http://creativecommons.org/ns#" xmlns:dc="http://purl.org/dc/elements/1.1/" xmlns:rdf="http://www.w3.org/1999/02/22-rdf-syntax-ns#">
   <cc:Work>
    <dc:type rdf:resource="http://purl.org/dc/dcmitype/StillImage"/>
    <dc:date>2022-02-11T09:44:32.977278</dc:date>
    <dc:format>image/svg+xml</dc:format>
    <dc:creator>
     <cc:Agent>
      <dc:title>Matplotlib v3.4.2, https://matplotlib.org/</dc:title>
     </cc:Agent>
    </dc:creator>
   </cc:Work>
  </rdf:RDF>
 </metadata>
 <defs>
  <style type="text/css">*{stroke-linecap:butt;stroke-linejoin:round;}</style>
 </defs>
 <g id="figure_1">
  <g id="patch_1">
   <path d="M 0 345.6 
L 460.8 345.6 
L 460.8 0 
L 0 0 
z
" style="fill:#ffffff;"/>
  </g>
  <g id="axes_1">
   <g id="patch_2">
    <path d="M 57.6 307.584 
L 414.72 307.584 
L 414.72 41.472 
L 57.6 41.472 
z
" style="fill:#ffffff;"/>
   </g>
   <g id="matplotlib.axis_1">
    <g id="xtick_1">
     <g id="line2d_1">
      <defs>
       <path d="M 0 0 
L 0 3.5 
" id="mc36627abe6" style="stroke:#000000;stroke-width:0.8;"/>
      </defs>
      <g>
       <use style="stroke:#000000;stroke-width:0.8;" x="73.832727" xlink:href="#mc36627abe6" y="307.584"/>
      </g>
     </g>
     <g id="text_1">
      <!-- 0 -->
      <g transform="translate(70.651477 322.182437)scale(0.1 -0.1)">
       <defs>
        <path d="M 2034 4250 
Q 1547 4250 1301 3770 
Q 1056 3291 1056 2328 
Q 1056 1369 1301 889 
Q 1547 409 2034 409 
Q 2525 409 2770 889 
Q 3016 1369 3016 2328 
Q 3016 3291 2770 3770 
Q 2525 4250 2034 4250 
z
M 2034 4750 
Q 2819 4750 3233 4129 
Q 3647 3509 3647 2328 
Q 3647 1150 3233 529 
Q 2819 -91 2034 -91 
Q 1250 -91 836 529 
Q 422 1150 422 2328 
Q 422 3509 836 4129 
Q 1250 4750 2034 4750 
z
" id="DejaVuSans-30" transform="scale(0.015625)"/>
       </defs>
       <use xlink:href="#DejaVuSans-30"/>
      </g>
     </g>
    </g>
    <g id="xtick_2">
     <g id="line2d_2">
      <g>
       <use style="stroke:#000000;stroke-width:0.8;" x="139.024403" xlink:href="#mc36627abe6" y="307.584"/>
      </g>
     </g>
     <g id="text_2">
      <!-- 50 -->
      <g transform="translate(132.661903 322.182437)scale(0.1 -0.1)">
       <defs>
        <path d="M 691 4666 
L 3169 4666 
L 3169 4134 
L 1269 4134 
L 1269 2991 
Q 1406 3038 1543 3061 
Q 1681 3084 1819 3084 
Q 2600 3084 3056 2656 
Q 3513 2228 3513 1497 
Q 3513 744 3044 326 
Q 2575 -91 1722 -91 
Q 1428 -91 1123 -41 
Q 819 9 494 109 
L 494 744 
Q 775 591 1075 516 
Q 1375 441 1709 441 
Q 2250 441 2565 725 
Q 2881 1009 2881 1497 
Q 2881 1984 2565 2268 
Q 2250 2553 1709 2553 
Q 1456 2553 1204 2497 
Q 953 2441 691 2322 
L 691 4666 
z
" id="DejaVuSans-35" transform="scale(0.015625)"/>
       </defs>
       <use xlink:href="#DejaVuSans-35"/>
       <use x="63.623047" xlink:href="#DejaVuSans-30"/>
      </g>
     </g>
    </g>
    <g id="xtick_3">
     <g id="line2d_3">
      <g>
       <use style="stroke:#000000;stroke-width:0.8;" x="204.216079" xlink:href="#mc36627abe6" y="307.584"/>
      </g>
     </g>
     <g id="text_3">
      <!-- 100 -->
      <g transform="translate(194.672329 322.182437)scale(0.1 -0.1)">
       <defs>
        <path d="M 794 531 
L 1825 531 
L 1825 4091 
L 703 3866 
L 703 4441 
L 1819 4666 
L 2450 4666 
L 2450 531 
L 3481 531 
L 3481 0 
L 794 0 
L 794 531 
z
" id="DejaVuSans-31" transform="scale(0.015625)"/>
       </defs>
       <use xlink:href="#DejaVuSans-31"/>
       <use x="63.623047" xlink:href="#DejaVuSans-30"/>
       <use x="127.246094" xlink:href="#DejaVuSans-30"/>
      </g>
     </g>
    </g>
    <g id="xtick_4">
     <g id="line2d_4">
      <g>
       <use style="stroke:#000000;stroke-width:0.8;" x="269.407755" xlink:href="#mc36627abe6" y="307.584"/>
      </g>
     </g>
     <g id="text_4">
      <!-- 150 -->
      <g transform="translate(259.864005 322.182437)scale(0.1 -0.1)">
       <use xlink:href="#DejaVuSans-31"/>
       <use x="63.623047" xlink:href="#DejaVuSans-35"/>
       <use x="127.246094" xlink:href="#DejaVuSans-30"/>
      </g>
     </g>
    </g>
    <g id="xtick_5">
     <g id="line2d_5">
      <g>
       <use style="stroke:#000000;stroke-width:0.8;" x="334.59943" xlink:href="#mc36627abe6" y="307.584"/>
      </g>
     </g>
     <g id="text_5">
      <!-- 200 -->
      <g transform="translate(325.05568 322.182437)scale(0.1 -0.1)">
       <defs>
        <path d="M 1228 531 
L 3431 531 
L 3431 0 
L 469 0 
L 469 531 
Q 828 903 1448 1529 
Q 2069 2156 2228 2338 
Q 2531 2678 2651 2914 
Q 2772 3150 2772 3378 
Q 2772 3750 2511 3984 
Q 2250 4219 1831 4219 
Q 1534 4219 1204 4116 
Q 875 4013 500 3803 
L 500 4441 
Q 881 4594 1212 4672 
Q 1544 4750 1819 4750 
Q 2544 4750 2975 4387 
Q 3406 4025 3406 3419 
Q 3406 3131 3298 2873 
Q 3191 2616 2906 2266 
Q 2828 2175 2409 1742 
Q 1991 1309 1228 531 
z
" id="DejaVuSans-32" transform="scale(0.015625)"/>
       </defs>
       <use xlink:href="#DejaVuSans-32"/>
       <use x="63.623047" xlink:href="#DejaVuSans-30"/>
       <use x="127.246094" xlink:href="#DejaVuSans-30"/>
      </g>
     </g>
    </g>
    <g id="xtick_6">
     <g id="line2d_6">
      <g>
       <use style="stroke:#000000;stroke-width:0.8;" x="399.791106" xlink:href="#mc36627abe6" y="307.584"/>
      </g>
     </g>
     <g id="text_6">
      <!-- 250 -->
      <g transform="translate(390.247356 322.182437)scale(0.1 -0.1)">
       <use xlink:href="#DejaVuSans-32"/>
       <use x="63.623047" xlink:href="#DejaVuSans-35"/>
       <use x="127.246094" xlink:href="#DejaVuSans-30"/>
      </g>
     </g>
    </g>
    <g id="text_7">
     <!--  -&gt; x axis: ethyleneglycol measurements. each measurement has 50k data points. -->
     <g transform="translate(29.114687 335.860562)scale(0.1 -0.1)">
      <defs>
       <path id="DejaVuSans-20" transform="scale(0.015625)"/>
       <path d="M 313 2009 
L 1997 2009 
L 1997 1497 
L 313 1497 
L 313 2009 
z
" id="DejaVuSans-2d" transform="scale(0.015625)"/>
       <path d="M 678 3150 
L 678 3719 
L 4684 2266 
L 4684 1747 
L 678 294 
L 678 863 
L 3897 2003 
L 678 3150 
z
" id="DejaVuSans-3e" transform="scale(0.015625)"/>
       <path d="M 3513 3500 
L 2247 1797 
L 3578 0 
L 2900 0 
L 1881 1375 
L 863 0 
L 184 0 
L 1544 1831 
L 300 3500 
L 978 3500 
L 1906 2253 
L 2834 3500 
L 3513 3500 
z
" id="DejaVuSans-78" transform="scale(0.015625)"/>
       <path d="M 2194 1759 
Q 1497 1759 1228 1600 
Q 959 1441 959 1056 
Q 959 750 1161 570 
Q 1363 391 1709 391 
Q 2188 391 2477 730 
Q 2766 1069 2766 1631 
L 2766 1759 
L 2194 1759 
z
M 3341 1997 
L 3341 0 
L 2766 0 
L 2766 531 
Q 2569 213 2275 61 
Q 1981 -91 1556 -91 
Q 1019 -91 701 211 
Q 384 513 384 1019 
Q 384 1609 779 1909 
Q 1175 2209 1959 2209 
L 2766 2209 
L 2766 2266 
Q 2766 2663 2505 2880 
Q 2244 3097 1772 3097 
Q 1472 3097 1187 3025 
Q 903 2953 641 2809 
L 641 3341 
Q 956 3463 1253 3523 
Q 1550 3584 1831 3584 
Q 2591 3584 2966 3190 
Q 3341 2797 3341 1997 
z
" id="DejaVuSans-61" transform="scale(0.015625)"/>
       <path d="M 603 3500 
L 1178 3500 
L 1178 0 
L 603 0 
L 603 3500 
z
M 603 4863 
L 1178 4863 
L 1178 4134 
L 603 4134 
L 603 4863 
z
" id="DejaVuSans-69" transform="scale(0.015625)"/>
       <path d="M 2834 3397 
L 2834 2853 
Q 2591 2978 2328 3040 
Q 2066 3103 1784 3103 
Q 1356 3103 1142 2972 
Q 928 2841 928 2578 
Q 928 2378 1081 2264 
Q 1234 2150 1697 2047 
L 1894 2003 
Q 2506 1872 2764 1633 
Q 3022 1394 3022 966 
Q 3022 478 2636 193 
Q 2250 -91 1575 -91 
Q 1294 -91 989 -36 
Q 684 19 347 128 
L 347 722 
Q 666 556 975 473 
Q 1284 391 1588 391 
Q 1994 391 2212 530 
Q 2431 669 2431 922 
Q 2431 1156 2273 1281 
Q 2116 1406 1581 1522 
L 1381 1569 
Q 847 1681 609 1914 
Q 372 2147 372 2553 
Q 372 3047 722 3315 
Q 1072 3584 1716 3584 
Q 2034 3584 2315 3537 
Q 2597 3491 2834 3397 
z
" id="DejaVuSans-73" transform="scale(0.015625)"/>
       <path d="M 750 794 
L 1409 794 
L 1409 0 
L 750 0 
L 750 794 
z
M 750 3309 
L 1409 3309 
L 1409 2516 
L 750 2516 
L 750 3309 
z
" id="DejaVuSans-3a" transform="scale(0.015625)"/>
       <path d="M 3597 1894 
L 3597 1613 
L 953 1613 
Q 991 1019 1311 708 
Q 1631 397 2203 397 
Q 2534 397 2845 478 
Q 3156 559 3463 722 
L 3463 178 
Q 3153 47 2828 -22 
Q 2503 -91 2169 -91 
Q 1331 -91 842 396 
Q 353 884 353 1716 
Q 353 2575 817 3079 
Q 1281 3584 2069 3584 
Q 2775 3584 3186 3129 
Q 3597 2675 3597 1894 
z
M 3022 2063 
Q 3016 2534 2758 2815 
Q 2500 3097 2075 3097 
Q 1594 3097 1305 2825 
Q 1016 2553 972 2059 
L 3022 2063 
z
" id="DejaVuSans-65" transform="scale(0.015625)"/>
       <path d="M 1172 4494 
L 1172 3500 
L 2356 3500 
L 2356 3053 
L 1172 3053 
L 1172 1153 
Q 1172 725 1289 603 
Q 1406 481 1766 481 
L 2356 481 
L 2356 0 
L 1766 0 
Q 1100 0 847 248 
Q 594 497 594 1153 
L 594 3053 
L 172 3053 
L 172 3500 
L 594 3500 
L 594 4494 
L 1172 4494 
z
" id="DejaVuSans-74" transform="scale(0.015625)"/>
       <path d="M 3513 2113 
L 3513 0 
L 2938 0 
L 2938 2094 
Q 2938 2591 2744 2837 
Q 2550 3084 2163 3084 
Q 1697 3084 1428 2787 
Q 1159 2491 1159 1978 
L 1159 0 
L 581 0 
L 581 4863 
L 1159 4863 
L 1159 2956 
Q 1366 3272 1645 3428 
Q 1925 3584 2291 3584 
Q 2894 3584 3203 3211 
Q 3513 2838 3513 2113 
z
" id="DejaVuSans-68" transform="scale(0.015625)"/>
       <path d="M 2059 -325 
Q 1816 -950 1584 -1140 
Q 1353 -1331 966 -1331 
L 506 -1331 
L 506 -850 
L 844 -850 
Q 1081 -850 1212 -737 
Q 1344 -625 1503 -206 
L 1606 56 
L 191 3500 
L 800 3500 
L 1894 763 
L 2988 3500 
L 3597 3500 
L 2059 -325 
z
" id="DejaVuSans-79" transform="scale(0.015625)"/>
       <path d="M 603 4863 
L 1178 4863 
L 1178 0 
L 603 0 
L 603 4863 
z
" id="DejaVuSans-6c" transform="scale(0.015625)"/>
       <path d="M 3513 2113 
L 3513 0 
L 2938 0 
L 2938 2094 
Q 2938 2591 2744 2837 
Q 2550 3084 2163 3084 
Q 1697 3084 1428 2787 
Q 1159 2491 1159 1978 
L 1159 0 
L 581 0 
L 581 3500 
L 1159 3500 
L 1159 2956 
Q 1366 3272 1645 3428 
Q 1925 3584 2291 3584 
Q 2894 3584 3203 3211 
Q 3513 2838 3513 2113 
z
" id="DejaVuSans-6e" transform="scale(0.015625)"/>
       <path d="M 2906 1791 
Q 2906 2416 2648 2759 
Q 2391 3103 1925 3103 
Q 1463 3103 1205 2759 
Q 947 2416 947 1791 
Q 947 1169 1205 825 
Q 1463 481 1925 481 
Q 2391 481 2648 825 
Q 2906 1169 2906 1791 
z
M 3481 434 
Q 3481 -459 3084 -895 
Q 2688 -1331 1869 -1331 
Q 1566 -1331 1297 -1286 
Q 1028 -1241 775 -1147 
L 775 -588 
Q 1028 -725 1275 -790 
Q 1522 -856 1778 -856 
Q 2344 -856 2625 -561 
Q 2906 -266 2906 331 
L 2906 616 
Q 2728 306 2450 153 
Q 2172 0 1784 0 
Q 1141 0 747 490 
Q 353 981 353 1791 
Q 353 2603 747 3093 
Q 1141 3584 1784 3584 
Q 2172 3584 2450 3431 
Q 2728 3278 2906 2969 
L 2906 3500 
L 3481 3500 
L 3481 434 
z
" id="DejaVuSans-67" transform="scale(0.015625)"/>
       <path d="M 3122 3366 
L 3122 2828 
Q 2878 2963 2633 3030 
Q 2388 3097 2138 3097 
Q 1578 3097 1268 2742 
Q 959 2388 959 1747 
Q 959 1106 1268 751 
Q 1578 397 2138 397 
Q 2388 397 2633 464 
Q 2878 531 3122 666 
L 3122 134 
Q 2881 22 2623 -34 
Q 2366 -91 2075 -91 
Q 1284 -91 818 406 
Q 353 903 353 1747 
Q 353 2603 823 3093 
Q 1294 3584 2113 3584 
Q 2378 3584 2631 3529 
Q 2884 3475 3122 3366 
z
" id="DejaVuSans-63" transform="scale(0.015625)"/>
       <path d="M 1959 3097 
Q 1497 3097 1228 2736 
Q 959 2375 959 1747 
Q 959 1119 1226 758 
Q 1494 397 1959 397 
Q 2419 397 2687 759 
Q 2956 1122 2956 1747 
Q 2956 2369 2687 2733 
Q 2419 3097 1959 3097 
z
M 1959 3584 
Q 2709 3584 3137 3096 
Q 3566 2609 3566 1747 
Q 3566 888 3137 398 
Q 2709 -91 1959 -91 
Q 1206 -91 779 398 
Q 353 888 353 1747 
Q 353 2609 779 3096 
Q 1206 3584 1959 3584 
z
" id="DejaVuSans-6f" transform="scale(0.015625)"/>
       <path d="M 3328 2828 
Q 3544 3216 3844 3400 
Q 4144 3584 4550 3584 
Q 5097 3584 5394 3201 
Q 5691 2819 5691 2113 
L 5691 0 
L 5113 0 
L 5113 2094 
Q 5113 2597 4934 2840 
Q 4756 3084 4391 3084 
Q 3944 3084 3684 2787 
Q 3425 2491 3425 1978 
L 3425 0 
L 2847 0 
L 2847 2094 
Q 2847 2600 2669 2842 
Q 2491 3084 2119 3084 
Q 1678 3084 1418 2786 
Q 1159 2488 1159 1978 
L 1159 0 
L 581 0 
L 581 3500 
L 1159 3500 
L 1159 2956 
Q 1356 3278 1631 3431 
Q 1906 3584 2284 3584 
Q 2666 3584 2933 3390 
Q 3200 3197 3328 2828 
z
" id="DejaVuSans-6d" transform="scale(0.015625)"/>
       <path d="M 544 1381 
L 544 3500 
L 1119 3500 
L 1119 1403 
Q 1119 906 1312 657 
Q 1506 409 1894 409 
Q 2359 409 2629 706 
Q 2900 1003 2900 1516 
L 2900 3500 
L 3475 3500 
L 3475 0 
L 2900 0 
L 2900 538 
Q 2691 219 2414 64 
Q 2138 -91 1772 -91 
Q 1169 -91 856 284 
Q 544 659 544 1381 
z
M 1991 3584 
L 1991 3584 
z
" id="DejaVuSans-75" transform="scale(0.015625)"/>
       <path d="M 2631 2963 
Q 2534 3019 2420 3045 
Q 2306 3072 2169 3072 
Q 1681 3072 1420 2755 
Q 1159 2438 1159 1844 
L 1159 0 
L 581 0 
L 581 3500 
L 1159 3500 
L 1159 2956 
Q 1341 3275 1631 3429 
Q 1922 3584 2338 3584 
Q 2397 3584 2469 3576 
Q 2541 3569 2628 3553 
L 2631 2963 
z
" id="DejaVuSans-72" transform="scale(0.015625)"/>
       <path d="M 684 794 
L 1344 794 
L 1344 0 
L 684 0 
L 684 794 
z
" id="DejaVuSans-2e" transform="scale(0.015625)"/>
       <path d="M 581 4863 
L 1159 4863 
L 1159 1991 
L 2875 3500 
L 3609 3500 
L 1753 1863 
L 3688 0 
L 2938 0 
L 1159 1709 
L 1159 0 
L 581 0 
L 581 4863 
z
" id="DejaVuSans-6b" transform="scale(0.015625)"/>
       <path d="M 2906 2969 
L 2906 4863 
L 3481 4863 
L 3481 0 
L 2906 0 
L 2906 525 
Q 2725 213 2448 61 
Q 2172 -91 1784 -91 
Q 1150 -91 751 415 
Q 353 922 353 1747 
Q 353 2572 751 3078 
Q 1150 3584 1784 3584 
Q 2172 3584 2448 3432 
Q 2725 3281 2906 2969 
z
M 947 1747 
Q 947 1113 1208 752 
Q 1469 391 1925 391 
Q 2381 391 2643 752 
Q 2906 1113 2906 1747 
Q 2906 2381 2643 2742 
Q 2381 3103 1925 3103 
Q 1469 3103 1208 2742 
Q 947 2381 947 1747 
z
" id="DejaVuSans-64" transform="scale(0.015625)"/>
       <path d="M 1159 525 
L 1159 -1331 
L 581 -1331 
L 581 3500 
L 1159 3500 
L 1159 2969 
Q 1341 3281 1617 3432 
Q 1894 3584 2278 3584 
Q 2916 3584 3314 3078 
Q 3713 2572 3713 1747 
Q 3713 922 3314 415 
Q 2916 -91 2278 -91 
Q 1894 -91 1617 61 
Q 1341 213 1159 525 
z
M 3116 1747 
Q 3116 2381 2855 2742 
Q 2594 3103 2138 3103 
Q 1681 3103 1420 2742 
Q 1159 2381 1159 1747 
Q 1159 1113 1420 752 
Q 1681 391 2138 391 
Q 2594 391 2855 752 
Q 3116 1113 3116 1747 
z
" id="DejaVuSans-70" transform="scale(0.015625)"/>
      </defs>
      <use xlink:href="#DejaVuSans-20"/>
      <use x="31.787109" xlink:href="#DejaVuSans-2d"/>
      <use x="67.871094" xlink:href="#DejaVuSans-3e"/>
      <use x="151.660156" xlink:href="#DejaVuSans-20"/>
      <use x="183.447266" xlink:href="#DejaVuSans-78"/>
      <use x="242.626953" xlink:href="#DejaVuSans-20"/>
      <use x="274.414062" xlink:href="#DejaVuSans-61"/>
      <use x="335.693359" xlink:href="#DejaVuSans-78"/>
      <use x="394.873047" xlink:href="#DejaVuSans-69"/>
      <use x="422.65625" xlink:href="#DejaVuSans-73"/>
      <use x="474.755859" xlink:href="#DejaVuSans-3a"/>
      <use x="508.447266" xlink:href="#DejaVuSans-20"/>
      <use x="540.234375" xlink:href="#DejaVuSans-65"/>
      <use x="601.757812" xlink:href="#DejaVuSans-74"/>
      <use x="640.966797" xlink:href="#DejaVuSans-68"/>
      <use x="704.345703" xlink:href="#DejaVuSans-79"/>
      <use x="763.525391" xlink:href="#DejaVuSans-6c"/>
      <use x="791.308594" xlink:href="#DejaVuSans-65"/>
      <use x="852.832031" xlink:href="#DejaVuSans-6e"/>
      <use x="916.210938" xlink:href="#DejaVuSans-65"/>
      <use x="977.734375" xlink:href="#DejaVuSans-67"/>
      <use x="1041.210938" xlink:href="#DejaVuSans-6c"/>
      <use x="1068.994141" xlink:href="#DejaVuSans-79"/>
      <use x="1128.173828" xlink:href="#DejaVuSans-63"/>
      <use x="1183.154297" xlink:href="#DejaVuSans-6f"/>
      <use x="1244.335938" xlink:href="#DejaVuSans-6c"/>
      <use x="1272.119141" xlink:href="#DejaVuSans-20"/>
      <use x="1303.90625" xlink:href="#DejaVuSans-6d"/>
      <use x="1401.318359" xlink:href="#DejaVuSans-65"/>
      <use x="1462.841797" xlink:href="#DejaVuSans-61"/>
      <use x="1524.121094" xlink:href="#DejaVuSans-73"/>
      <use x="1576.220703" xlink:href="#DejaVuSans-75"/>
      <use x="1639.599609" xlink:href="#DejaVuSans-72"/>
      <use x="1678.462891" xlink:href="#DejaVuSans-65"/>
      <use x="1739.986328" xlink:href="#DejaVuSans-6d"/>
      <use x="1837.398438" xlink:href="#DejaVuSans-65"/>
      <use x="1898.921875" xlink:href="#DejaVuSans-6e"/>
      <use x="1962.300781" xlink:href="#DejaVuSans-74"/>
      <use x="2001.509766" xlink:href="#DejaVuSans-73"/>
      <use x="2053.609375" xlink:href="#DejaVuSans-2e"/>
      <use x="2085.396484" xlink:href="#DejaVuSans-20"/>
      <use x="2117.183594" xlink:href="#DejaVuSans-65"/>
      <use x="2178.707031" xlink:href="#DejaVuSans-61"/>
      <use x="2239.986328" xlink:href="#DejaVuSans-63"/>
      <use x="2294.966797" xlink:href="#DejaVuSans-68"/>
      <use x="2358.345703" xlink:href="#DejaVuSans-20"/>
      <use x="2390.132812" xlink:href="#DejaVuSans-6d"/>
      <use x="2487.544922" xlink:href="#DejaVuSans-65"/>
      <use x="2549.068359" xlink:href="#DejaVuSans-61"/>
      <use x="2610.347656" xlink:href="#DejaVuSans-73"/>
      <use x="2662.447266" xlink:href="#DejaVuSans-75"/>
      <use x="2725.826172" xlink:href="#DejaVuSans-72"/>
      <use x="2764.689453" xlink:href="#DejaVuSans-65"/>
      <use x="2826.212891" xlink:href="#DejaVuSans-6d"/>
      <use x="2923.625" xlink:href="#DejaVuSans-65"/>
      <use x="2985.148438" xlink:href="#DejaVuSans-6e"/>
      <use x="3048.527344" xlink:href="#DejaVuSans-74"/>
      <use x="3087.736328" xlink:href="#DejaVuSans-20"/>
      <use x="3119.523438" xlink:href="#DejaVuSans-68"/>
      <use x="3182.902344" xlink:href="#DejaVuSans-61"/>
      <use x="3244.181641" xlink:href="#DejaVuSans-73"/>
      <use x="3296.28125" xlink:href="#DejaVuSans-20"/>
      <use x="3328.068359" xlink:href="#DejaVuSans-35"/>
      <use x="3391.691406" xlink:href="#DejaVuSans-30"/>
      <use x="3455.314453" xlink:href="#DejaVuSans-6b"/>
      <use x="3513.224609" xlink:href="#DejaVuSans-20"/>
      <use x="3545.011719" xlink:href="#DejaVuSans-64"/>
      <use x="3608.488281" xlink:href="#DejaVuSans-61"/>
      <use x="3669.767578" xlink:href="#DejaVuSans-74"/>
      <use x="3708.976562" xlink:href="#DejaVuSans-61"/>
      <use x="3770.255859" xlink:href="#DejaVuSans-20"/>
      <use x="3802.042969" xlink:href="#DejaVuSans-70"/>
      <use x="3865.519531" xlink:href="#DejaVuSans-6f"/>
      <use x="3926.701172" xlink:href="#DejaVuSans-69"/>
      <use x="3954.484375" xlink:href="#DejaVuSans-6e"/>
      <use x="4017.863281" xlink:href="#DejaVuSans-74"/>
      <use x="4057.072266" xlink:href="#DejaVuSans-73"/>
      <use x="4109.171875" xlink:href="#DejaVuSans-2e"/>
     </g>
    </g>
   </g>
   <g id="matplotlib.axis_2">
    <g id="ytick_1">
     <g id="line2d_7">
      <defs>
       <path d="M 0 0 
L -3.5 0 
" id="m2ed3097f75" style="stroke:#000000;stroke-width:0.8;"/>
      </defs>
      <g>
       <use style="stroke:#000000;stroke-width:0.8;" x="57.6" xlink:href="#m2ed3097f75" y="296.854058"/>
      </g>
     </g>
     <g id="text_8">
      <!-- 50 -->
      <g style="fill:#2ca02c;" transform="translate(37.875 300.653277)scale(0.1 -0.1)">
       <use xlink:href="#DejaVuSans-35"/>
       <use x="63.623047" xlink:href="#DejaVuSans-30"/>
      </g>
     </g>
    </g>
    <g id="ytick_2">
     <g id="line2d_8">
      <g>
       <use style="stroke:#000000;stroke-width:0.8;" x="57.6" xlink:href="#m2ed3097f75" y="257.983721"/>
      </g>
     </g>
     <g id="text_9">
      <!-- 100 -->
      <g style="fill:#2ca02c;" transform="translate(31.5125 261.782939)scale(0.1 -0.1)">
       <use xlink:href="#DejaVuSans-31"/>
       <use x="63.623047" xlink:href="#DejaVuSans-30"/>
       <use x="127.246094" xlink:href="#DejaVuSans-30"/>
      </g>
     </g>
    </g>
    <g id="ytick_3">
     <g id="line2d_9">
      <g>
       <use style="stroke:#000000;stroke-width:0.8;" x="57.6" xlink:href="#m2ed3097f75" y="219.113383"/>
      </g>
     </g>
     <g id="text_10">
      <!-- 150 -->
      <g style="fill:#2ca02c;" transform="translate(31.5125 222.912602)scale(0.1 -0.1)">
       <use xlink:href="#DejaVuSans-31"/>
       <use x="63.623047" xlink:href="#DejaVuSans-35"/>
       <use x="127.246094" xlink:href="#DejaVuSans-30"/>
      </g>
     </g>
    </g>
    <g id="ytick_4">
     <g id="line2d_10">
      <g>
       <use style="stroke:#000000;stroke-width:0.8;" x="57.6" xlink:href="#m2ed3097f75" y="180.243046"/>
      </g>
     </g>
     <g id="text_11">
      <!-- 200 -->
      <g style="fill:#2ca02c;" transform="translate(31.5125 184.042265)scale(0.1 -0.1)">
       <use xlink:href="#DejaVuSans-32"/>
       <use x="63.623047" xlink:href="#DejaVuSans-30"/>
       <use x="127.246094" xlink:href="#DejaVuSans-30"/>
      </g>
     </g>
    </g>
    <g id="ytick_5">
     <g id="line2d_11">
      <g>
       <use style="stroke:#000000;stroke-width:0.8;" x="57.6" xlink:href="#m2ed3097f75" y="141.372709"/>
      </g>
     </g>
     <g id="text_12">
      <!-- 250 -->
      <g style="fill:#2ca02c;" transform="translate(31.5125 145.171928)scale(0.1 -0.1)">
       <use xlink:href="#DejaVuSans-32"/>
       <use x="63.623047" xlink:href="#DejaVuSans-35"/>
       <use x="127.246094" xlink:href="#DejaVuSans-30"/>
      </g>
     </g>
    </g>
    <g id="ytick_6">
     <g id="line2d_12">
      <g>
       <use style="stroke:#000000;stroke-width:0.8;" x="57.6" xlink:href="#m2ed3097f75" y="102.502371"/>
      </g>
     </g>
     <g id="text_13">
      <!-- 300 -->
      <g style="fill:#2ca02c;" transform="translate(31.5125 106.30159)scale(0.1 -0.1)">
       <defs>
        <path d="M 2597 2516 
Q 3050 2419 3304 2112 
Q 3559 1806 3559 1356 
Q 3559 666 3084 287 
Q 2609 -91 1734 -91 
Q 1441 -91 1130 -33 
Q 819 25 488 141 
L 488 750 
Q 750 597 1062 519 
Q 1375 441 1716 441 
Q 2309 441 2620 675 
Q 2931 909 2931 1356 
Q 2931 1769 2642 2001 
Q 2353 2234 1838 2234 
L 1294 2234 
L 1294 2753 
L 1863 2753 
Q 2328 2753 2575 2939 
Q 2822 3125 2822 3475 
Q 2822 3834 2567 4026 
Q 2313 4219 1838 4219 
Q 1578 4219 1281 4162 
Q 984 4106 628 3988 
L 628 4550 
Q 988 4650 1302 4700 
Q 1616 4750 1894 4750 
Q 2613 4750 3031 4423 
Q 3450 4097 3450 3541 
Q 3450 3153 3228 2886 
Q 3006 2619 2597 2516 
z
" id="DejaVuSans-33" transform="scale(0.015625)"/>
       </defs>
       <use xlink:href="#DejaVuSans-33"/>
       <use x="63.623047" xlink:href="#DejaVuSans-30"/>
       <use x="127.246094" xlink:href="#DejaVuSans-30"/>
      </g>
     </g>
    </g>
    <g id="ytick_7">
     <g id="line2d_13">
      <g>
       <use style="stroke:#000000;stroke-width:0.8;" x="57.6" xlink:href="#m2ed3097f75" y="63.632034"/>
      </g>
     </g>
     <g id="text_14">
      <!-- 350 -->
      <g style="fill:#2ca02c;" transform="translate(31.5125 67.431253)scale(0.1 -0.1)">
       <use xlink:href="#DejaVuSans-33"/>
       <use x="63.623047" xlink:href="#DejaVuSans-35"/>
       <use x="127.246094" xlink:href="#DejaVuSans-30"/>
      </g>
     </g>
    </g>
    <g id="text_15">
     <!--  mean_value_array ]1  -->
     <g style="fill:#2ca02c;" transform="translate(25.154687 230.375656)rotate(-90)scale(0.1 -0.1)">
      <defs>
       <path d="M 3263 -1063 
L 3263 -1509 
L -63 -1509 
L -63 -1063 
L 3263 -1063 
z
" id="DejaVuSans-5f" transform="scale(0.015625)"/>
       <path d="M 191 3500 
L 800 3500 
L 1894 563 
L 2988 3500 
L 3597 3500 
L 2284 0 
L 1503 0 
L 191 3500 
z
" id="DejaVuSans-76" transform="scale(0.015625)"/>
       <path d="M 1947 4863 
L 1947 -844 
L 622 -844 
L 622 -397 
L 1369 -397 
L 1369 4416 
L 622 4416 
L 622 4863 
L 1947 4863 
z
" id="DejaVuSans-5d" transform="scale(0.015625)"/>
      </defs>
      <use xlink:href="#DejaVuSans-20"/>
      <use x="31.787109" xlink:href="#DejaVuSans-6d"/>
      <use x="129.199219" xlink:href="#DejaVuSans-65"/>
      <use x="190.722656" xlink:href="#DejaVuSans-61"/>
      <use x="252.001953" xlink:href="#DejaVuSans-6e"/>
      <use x="315.380859" xlink:href="#DejaVuSans-5f"/>
      <use x="365.380859" xlink:href="#DejaVuSans-76"/>
      <use x="424.560547" xlink:href="#DejaVuSans-61"/>
      <use x="485.839844" xlink:href="#DejaVuSans-6c"/>
      <use x="513.623047" xlink:href="#DejaVuSans-75"/>
      <use x="577.001953" xlink:href="#DejaVuSans-65"/>
      <use x="638.525391" xlink:href="#DejaVuSans-5f"/>
      <use x="688.525391" xlink:href="#DejaVuSans-61"/>
      <use x="749.804688" xlink:href="#DejaVuSans-72"/>
      <use x="789.167969" xlink:href="#DejaVuSans-72"/>
      <use x="830.28125" xlink:href="#DejaVuSans-61"/>
      <use x="891.560547" xlink:href="#DejaVuSans-79"/>
      <use x="950.740234" xlink:href="#DejaVuSans-20"/>
      <use x="982.527344" xlink:href="#DejaVuSans-5d"/>
      <use x="1021.541016" xlink:href="#DejaVuSans-31"/>
      <use x="1085.164062" xlink:href="#DejaVuSans-20"/>
     </g>
    </g>
   </g>
   <g id="line2d_14">
    <path clip-path="url(#p37a6fb39f6)" d="M 73.832727 228.161176 
L 75.136561 228.759248 
L 76.440394 230.15194 
L 79.048061 233.801716 
L 80.351895 236.38945 
L 81.655728 237.448319 
L 82.959562 238.713977 
L 84.263395 240.537739 
L 85.567229 241.033173 
L 86.871062 237.894015 
L 89.478729 237.516569 
L 90.782563 237.035239 
L 92.086396 236.958187 
L 93.39023 237.559985 
L 94.694064 235.615602 
L 95.997897 234.608221 
L 97.301731 233.816034 
L 98.605564 233.293892 
L 99.909398 241.752804 
L 101.213231 243.999159 
L 102.517065 243.458008 
L 103.820898 240.794628 
L 105.124732 239.903593 
L 106.428565 239.530417 
L 107.732399 240.119931 
L 109.036232 241.887524 
L 110.340066 242.227118 
L 111.643899 243.492355 
L 112.947733 239.243652 
L 114.251566 239.065487 
L 115.5554 239.301344 
L 116.859233 239.226505 
L 118.163067 239.42091 
L 119.4669 239.481473 
L 120.770734 235.813382 
L 122.074567 233.135091 
L 123.378401 233.002056 
L 124.682234 233.79652 
L 125.986068 227.17759 
L 127.289901 228.411707 
L 128.593735 229.452302 
L 129.897568 230.291998 
L 131.201402 229.819357 
L 132.505235 229.993839 
L 133.809069 231.083153 
L 135.112903 230.600405 
L 136.416736 230.688151 
L 137.72057 229.54796 
L 139.024403 223.513485 
L 140.328237 219.707352 
L 141.63207 219.913601 
L 142.935904 220.677188 
L 144.239737 223.292182 
L 145.543571 224.718966 
L 148.151238 225.613418 
L 149.455071 226.388084 
L 150.758905 228.323428 
L 152.062738 225.087076 
L 153.366572 227.064495 
L 155.974239 226.101373 
L 157.278072 226.655685 
L 158.581906 226.052927 
L 159.885739 225.056709 
L 161.189573 223.883588 
L 162.493406 223.789152 
L 163.79724 224.073242 
L 165.101073 224.819451 
L 166.404907 224.528896 
L 167.70874 225.098262 
L 170.316407 227.461253 
L 171.620241 226.981032 
L 172.924074 227.057876 
L 174.227908 226.798484 
L 176.835575 225.977554 
L 178.139409 221.724937 
L 179.443242 219.057417 
L 180.747076 218.330283 
L 182.050909 217.756907 
L 183.354743 217.675247 
L 184.658576 218.047391 
L 187.266243 219.206087 
L 188.570077 219.186147 
L 189.87391 219.354911 
L 191.177744 222.732792 
L 192.481577 225.003803 
L 193.785411 224.925168 
L 195.089244 224.415825 
L 196.393078 223.357128 
L 197.696911 221.792979 
L 199.000745 219.369193 
L 200.304578 219.336916 
L 201.608412 220.60019 
L 202.912245 221.110494 
L 204.216079 218.160391 
L 205.519912 218.469819 
L 206.823746 217.315571 
L 208.127579 215.425589 
L 209.431413 214.30089 
L 210.735246 211.754353 
L 212.03908 210.801231 
L 213.342913 211.506894 
L 214.646747 211.817971 
L 215.950581 212.43424 
L 217.254414 216.225617 
L 218.558248 215.958739 
L 219.862081 216.239555 
L 221.165915 215.180561 
L 222.469748 215.439313 
L 223.773582 216.022985 
L 225.077415 215.865632 
L 226.381249 213.349724 
L 227.685082 213.493531 
L 228.988916 213.8059 
L 230.292749 53.568 
L 231.596583 84.344866 
L 232.900416 87.429274 
L 234.20425 93.652229 
L 235.508083 96.709685 
L 236.811917 99.117492 
L 238.11575 105.346568 
L 239.419584 107.668207 
L 240.723417 109.609968 
L 242.027251 109.435877 
L 243.331084 210.324058 
L 244.634918 210.850044 
L 245.938751 211.042865 
L 247.242585 212.326993 
L 248.546418 213.287589 
L 249.850252 213.435441 
L 252.457919 211.17838 
L 253.761752 209.208826 
L 255.065586 208.69354 
L 256.369419 208.524811 
L 257.673253 209.022695 
L 258.977087 210.122305 
L 260.28092 210.352682 
L 261.584754 210.453678 
L 262.888587 207.57189 
L 264.192421 205.144427 
L 265.496254 205.416061 
L 266.800088 205.02578 
L 268.103921 206.473454 
L 269.407755 204.514658 
L 270.711588 206.706761 
L 272.015422 207.799515 
L 273.319255 206.351415 
L 274.623089 206.251854 
L 275.926922 205.955475 
L 277.230756 206.140942 
L 278.534589 205.81359 
L 279.838423 205.352029 
L 281.142256 201.956592 
L 282.44609 203.603813 
L 283.749923 204.619118 
L 285.053757 204.391279 
L 286.35759 203.573588 
L 287.661424 202.055535 
L 288.965257 202.40074 
L 290.269091 201.491163 
L 291.572924 201.616927 
L 292.876758 201.332399 
L 294.180591 203.164671 
L 295.484425 197.540892 
L 296.788258 197.792349 
L 298.092092 198.336875 
L 299.395926 197.530773 
L 300.699759 195.898724 
L 302.003593 196.908905 
L 303.307426 195.441825 
L 304.61126 196.47643 
L 307.218927 201.499289 
L 308.52276 196.06966 
L 309.826594 195.917941 
L 312.434261 191.818632 
L 313.738094 192.175141 
L 318.953428 202.091798 
L 320.257262 202.505662 
L 321.561095 197.295414 
L 322.864929 199.444492 
L 324.168762 199.140046 
L 325.472596 199.397043 
L 326.776429 198.187458 
L 328.080263 197.318391 
L 329.384096 198.909811 
L 330.68793 199.735011 
L 331.991763 199.727455 
L 333.295597 200.064652 
L 334.59943 159.576098 
L 337.207097 160.99007 
L 338.510931 160.111549 
L 339.814765 158.620508 
L 342.422432 157.920407 
L 345.030099 157.854916 
L 346.333932 156.637632 
L 347.637766 154.254854 
L 348.941599 154.597318 
L 351.549266 154.697448 
L 352.8531 154.450013 
L 354.156933 153.898832 
L 355.460767 152.864559 
L 358.068434 152.138029 
L 359.372267 152.580718 
L 360.676101 146.033187 
L 363.283768 147.254208 
L 364.587601 147.006618 
L 365.891435 146.152474 
L 367.195268 146.27532 
L 368.499102 146.957651 
L 369.802935 147.282227 
L 371.106769 146.637464 
L 372.410602 146.353291 
L 373.714436 109.012346 
L 375.018269 107.389159 
L 376.322103 106.843256 
L 377.625936 106.614409 
L 378.92977 106.515122 
L 381.537437 102.870672 
L 384.145104 102.988868 
L 385.448938 101.480673 
L 386.752771 289.719978 
L 388.056605 291.112288 
L 389.360438 292.025393 
L 390.664272 293.406216 
L 391.968105 294.268498 
L 393.271939 294.229032 
L 394.575772 293.317469 
L 395.879606 292.902953 
L 397.183439 294.567587 
L 398.487273 295.488 
L 398.487273 295.488 
" style="fill:none;stroke:#2ca02c;stroke-linecap:square;stroke-width:1.5;"/>
   </g>
   <g id="patch_3">
    <path d="M 57.6 307.584 
L 57.6 41.472 
" style="fill:none;stroke:#000000;stroke-linecap:square;stroke-linejoin:miter;stroke-width:0.8;"/>
   </g>
   <g id="patch_4">
    <path d="M 414.72 307.584 
L 414.72 41.472 
" style="fill:none;stroke:#000000;stroke-linecap:square;stroke-linejoin:miter;stroke-width:0.8;"/>
   </g>
   <g id="patch_5">
    <path d="M 57.6 307.584 
L 414.72 307.584 
" style="fill:none;stroke:#000000;stroke-linecap:square;stroke-linejoin:miter;stroke-width:0.8;"/>
   </g>
   <g id="patch_6">
    <path d="M 57.6 41.472 
L 414.72 41.472 
" style="fill:none;stroke:#000000;stroke-linecap:square;stroke-linejoin:miter;stroke-width:0.8;"/>
   </g>
  </g>
  <g id="axes_2">
   <g id="matplotlib.axis_3">
    <g id="ytick_8">
     <g id="line2d_15">
      <defs>
       <path d="M 0 0 
L 3.5 0 
" id="m2e33060613" style="stroke:#000000;stroke-width:0.8;"/>
      </defs>
      <g>
       <use style="stroke:#000000;stroke-width:0.8;" x="414.72" xlink:href="#m2e33060613" y="296.903802"/>
      </g>
     </g>
     <g id="text_16">
      <!-- 50 -->
      <g style="fill:#9467bd;" transform="translate(421.72 300.703021)scale(0.1 -0.1)">
       <use xlink:href="#DejaVuSans-35"/>
       <use x="63.623047" xlink:href="#DejaVuSans-30"/>
      </g>
     </g>
    </g>
    <g id="ytick_9">
     <g id="line2d_16">
      <g>
       <use style="stroke:#000000;stroke-width:0.8;" x="414.72" xlink:href="#m2e33060613" y="254.674604"/>
      </g>
     </g>
     <g id="text_17">
      <!-- 100 -->
      <g style="fill:#9467bd;" transform="translate(421.72 258.473823)scale(0.1 -0.1)">
       <use xlink:href="#DejaVuSans-31"/>
       <use x="63.623047" xlink:href="#DejaVuSans-30"/>
       <use x="127.246094" xlink:href="#DejaVuSans-30"/>
      </g>
     </g>
    </g>
    <g id="ytick_10">
     <g id="line2d_17">
      <g>
       <use style="stroke:#000000;stroke-width:0.8;" x="414.72" xlink:href="#m2e33060613" y="212.445407"/>
      </g>
     </g>
     <g id="text_18">
      <!-- 150 -->
      <g style="fill:#9467bd;" transform="translate(421.72 216.244626)scale(0.1 -0.1)">
       <use xlink:href="#DejaVuSans-31"/>
       <use x="63.623047" xlink:href="#DejaVuSans-35"/>
       <use x="127.246094" xlink:href="#DejaVuSans-30"/>
      </g>
     </g>
    </g>
    <g id="ytick_11">
     <g id="line2d_18">
      <g>
       <use style="stroke:#000000;stroke-width:0.8;" x="414.72" xlink:href="#m2e33060613" y="170.216209"/>
      </g>
     </g>
     <g id="text_19">
      <!-- 200 -->
      <g style="fill:#9467bd;" transform="translate(421.72 174.015428)scale(0.1 -0.1)">
       <use xlink:href="#DejaVuSans-32"/>
       <use x="63.623047" xlink:href="#DejaVuSans-30"/>
       <use x="127.246094" xlink:href="#DejaVuSans-30"/>
      </g>
     </g>
    </g>
    <g id="ytick_12">
     <g id="line2d_19">
      <g>
       <use style="stroke:#000000;stroke-width:0.8;" x="414.72" xlink:href="#m2e33060613" y="127.987012"/>
      </g>
     </g>
     <g id="text_20">
      <!-- 250 -->
      <g style="fill:#9467bd;" transform="translate(421.72 131.78623)scale(0.1 -0.1)">
       <use xlink:href="#DejaVuSans-32"/>
       <use x="63.623047" xlink:href="#DejaVuSans-35"/>
       <use x="127.246094" xlink:href="#DejaVuSans-30"/>
      </g>
     </g>
    </g>
    <g id="ytick_13">
     <g id="line2d_20">
      <g>
       <use style="stroke:#000000;stroke-width:0.8;" x="414.72" xlink:href="#m2e33060613" y="85.757814"/>
      </g>
     </g>
     <g id="text_21">
      <!-- 300 -->
      <g style="fill:#9467bd;" transform="translate(421.72 89.557033)scale(0.1 -0.1)">
       <use xlink:href="#DejaVuSans-33"/>
       <use x="63.623047" xlink:href="#DejaVuSans-30"/>
       <use x="127.246094" xlink:href="#DejaVuSans-30"/>
      </g>
     </g>
    </g>
    <g id="ytick_14">
     <g id="line2d_21">
      <g>
       <use style="stroke:#000000;stroke-width:0.8;" x="414.72" xlink:href="#m2e33060613" y="43.528617"/>
      </g>
     </g>
     <g id="text_22">
      <!-- 350 -->
      <g style="fill:#9467bd;" transform="translate(421.72 47.327835)scale(0.1 -0.1)">
       <use xlink:href="#DejaVuSans-33"/>
       <use x="63.623047" xlink:href="#DejaVuSans-35"/>
       <use x="127.246094" xlink:href="#DejaVuSans-30"/>
      </g>
     </g>
    </g>
    <g id="text_23">
     <!--  med_value_array ]0  -->
     <g style="fill:#9467bd;" transform="translate(452.405937 227.317062)rotate(-90)scale(0.1 -0.1)">
      <use xlink:href="#DejaVuSans-20"/>
      <use x="31.787109" xlink:href="#DejaVuSans-6d"/>
      <use x="129.199219" xlink:href="#DejaVuSans-65"/>
      <use x="190.722656" xlink:href="#DejaVuSans-64"/>
      <use x="254.199219" xlink:href="#DejaVuSans-5f"/>
      <use x="304.199219" xlink:href="#DejaVuSans-76"/>
      <use x="363.378906" xlink:href="#DejaVuSans-61"/>
      <use x="424.658203" xlink:href="#DejaVuSans-6c"/>
      <use x="452.441406" xlink:href="#DejaVuSans-75"/>
      <use x="515.820312" xlink:href="#DejaVuSans-65"/>
      <use x="577.34375" xlink:href="#DejaVuSans-5f"/>
      <use x="627.34375" xlink:href="#DejaVuSans-61"/>
      <use x="688.623047" xlink:href="#DejaVuSans-72"/>
      <use x="727.986328" xlink:href="#DejaVuSans-72"/>
      <use x="769.099609" xlink:href="#DejaVuSans-61"/>
      <use x="830.378906" xlink:href="#DejaVuSans-79"/>
      <use x="889.558594" xlink:href="#DejaVuSans-20"/>
      <use x="921.345703" xlink:href="#DejaVuSans-5d"/>
      <use x="960.359375" xlink:href="#DejaVuSans-30"/>
      <use x="1023.982422" xlink:href="#DejaVuSans-20"/>
     </g>
    </g>
   </g>
   <g id="line2d_22">
    <path clip-path="url(#p37a6fb39f6)" d="M 73.832727 222.27233 
L 75.136561 222.90975 
L 76.440394 224.397064 
L 77.744228 226.309337 
L 79.048061 228.434071 
L 80.351895 231.196238 
L 82.959562 233.745925 
L 84.263395 235.658185 
L 85.567229 236.295605 
L 86.871062 232.896018 
L 89.478729 232.471078 
L 90.782563 232.046138 
L 92.086396 231.833658 
L 93.39023 232.471078 
L 94.694064 230.346344 
L 95.997897 229.283964 
L 97.301731 228.434071 
L 98.605564 228.009124 
L 99.909398 237.145505 
L 101.213231 239.482712 
L 102.517065 238.845292 
L 103.820898 236.083132 
L 105.124732 235.020765 
L 106.428565 234.595818 
L 107.732399 235.233238 
L 109.036232 237.145505 
L 110.340066 237.570452 
L 111.643899 238.845292 
L 112.947733 234.383338 
L 114.251566 234.170871 
L 115.5554 234.383338 
L 116.859233 234.383338 
L 118.163067 234.595818 
L 119.4669 234.595818 
L 120.770734 230.558805 
L 122.074567 227.796651 
L 123.378401 227.584177 
L 124.682234 228.434071 
L 125.986068 221.20995 
L 128.593735 223.759643 
L 129.897568 224.609537 
L 131.201402 223.972117 
L 132.505235 224.18459 
L 133.809069 225.459443 
L 135.112903 225.034484 
L 136.416736 225.034484 
L 137.72057 223.759643 
L 139.024403 217.172956 
L 140.328237 213.135948 
L 141.63207 213.348422 
L 142.935904 214.198315 
L 144.239737 216.960469 
L 145.543571 218.447796 
L 146.847404 219.085216 
L 148.151238 219.510163 
L 149.455071 220.360056 
L 150.758905 222.484803 
L 152.062738 218.872743 
L 153.366572 220.997477 
L 154.670405 220.57253 
L 155.974239 219.935123 
L 157.278072 220.57253 
L 158.581906 219.935123 
L 159.885739 218.872743 
L 161.189573 217.597902 
L 162.493406 217.597902 
L 163.79724 217.810363 
L 165.101073 218.660269 
L 166.404907 218.447796 
L 167.70874 218.872743 
L 170.316407 221.422436 
L 171.620241 220.997477 
L 172.924074 220.997477 
L 174.227908 220.785016 
L 176.835575 219.935123 
L 178.139409 215.260695 
L 179.443242 212.498528 
L 180.747076 211.648622 
L 182.050909 211.011202 
L 183.354743 211.011202 
L 184.658576 211.223688 
L 187.266243 212.498528 
L 188.570077 212.498528 
L 189.87391 212.711002 
L 191.177744 216.323049 
L 192.481577 218.872743 
L 193.785411 218.660269 
L 195.089244 218.235323 
L 196.393078 216.960469 
L 197.696911 215.473156 
L 199.000745 212.711002 
L 200.304578 212.711002 
L 201.608412 213.985842 
L 202.912245 214.623262 
L 204.216079 211.436149 
L 205.519912 211.648622 
L 206.823746 210.586255 
L 208.127579 208.461521 
L 209.431413 207.186681 
L 210.735246 204.424514 
L 212.03908 203.362147 
L 213.342913 204.212041 
L 214.646747 204.424514 
L 215.950581 205.274408 
L 217.254414 209.311415 
L 218.558248 209.098941 
L 219.862081 209.311415 
L 221.165915 208.249035 
L 222.469748 208.461521 
L 223.773582 209.098941 
L 225.077415 208.886468 
L 226.381249 206.124301 
L 227.685082 206.336787 
L 228.988916 206.761721 
L 230.292749 53.568 
L 231.596583 66.103968 
L 232.900416 69.503568 
L 234.20425 76.090256 
L 235.508083 79.48983 
L 236.811917 82.251997 
L 238.11575 88.838685 
L 239.419584 91.388391 
L 240.723417 93.513099 
L 242.027251 93.300639 
L 243.331084 202.9372 
L 244.634918 203.574621 
L 245.938751 203.787094 
L 247.242585 205.061934 
L 248.546418 206.124301 
L 249.850252 206.336787 
L 252.457919 203.787094 
L 253.761752 201.66236 
L 255.065586 201.2374 
L 256.369419 201.024927 
L 257.673253 201.449887 
L 258.977087 202.724714 
L 261.584754 203.149674 
L 262.888587 199.96256 
L 264.192421 197.41288 
L 265.496254 197.625353 
L 266.800088 197.200393 
L 268.103921 198.687707 
L 269.407755 196.562973 
L 270.711588 198.900193 
L 272.015422 200.175046 
L 273.319255 198.687707 
L 275.926922 198.262773 
L 277.230756 198.262773 
L 278.534589 198.0503 
L 279.838423 197.625353 
L 281.142256 193.800819 
L 282.44609 195.71308 
L 283.749923 196.775459 
L 285.053757 196.562973 
L 286.35759 195.500606 
L 287.661424 194.013293 
L 288.965257 194.332009 
L 290.269091 193.375872 
L 291.572924 193.375872 
L 292.876758 193.163386 
L 294.180591 195.075659 
L 295.484425 189.126379 
L 296.788258 189.338865 
L 298.092092 189.763812 
L 299.395926 189.126379 
L 300.699759 187.214131 
L 302.003593 188.276498 
L 303.307426 186.789172 
L 304.61126 187.851552 
L 307.218927 193.375872 
L 308.52276 187.426605 
L 309.826594 187.214131 
L 311.130427 185.089398 
L 312.434261 182.752165 
L 313.738094 183.177124 
L 318.953428 194.013293 
L 320.257262 194.438239 
L 321.561095 188.701445 
L 322.864929 191.038652 
L 324.168762 190.826179 
L 325.472596 191.038652 
L 326.776429 189.763812 
L 328.080263 188.701445 
L 329.384096 190.613718 
L 330.68793 191.463612 
L 331.991763 191.463612 
L 333.295597 191.676072 
L 334.59943 147.733711 
L 335.903264 148.585318 
L 337.207097 149.224027 
L 338.510931 148.37242 
L 339.814765 146.882103 
L 342.422432 146.030496 
L 345.030099 146.030496 
L 346.333932 144.540179 
L 347.637766 141.985344 
L 348.941599 142.411154 
L 351.549266 142.411154 
L 352.8531 142.198242 
L 354.156933 141.559546 
L 355.460767 140.495027 
L 356.7646 140.069217 
L 358.068434 139.856318 
L 359.372267 140.282129 
L 360.676101 133.043445 
L 363.283768 134.320863 
L 364.587601 134.107951 
L 365.891435 133.256344 
L 367.195268 133.256344 
L 368.499102 134.107951 
L 369.802935 134.533762 
L 371.106769 133.682154 
L 372.410602 133.469242 
L 373.714436 92.804889 
L 375.018269 91.101674 
L 376.322103 90.462952 
L 377.625936 90.250053 
L 378.92977 90.250053 
L 380.233604 88.121041 
L 381.537437 86.204901 
L 384.145104 86.204901 
L 385.448938 84.714585 
L 386.752771 289.100927 
L 388.056605 290.591244 
L 389.360438 291.655756 
L 390.664272 293.146076 
L 391.968105 293.997684 
L 393.271939 293.997684 
L 394.575772 293.146076 
L 395.879606 292.720269 
L 397.183439 294.423487 
L 398.487273 295.488 
L 398.487273 295.488 
" style="fill:none;stroke:#9467bd;stroke-linecap:square;stroke-width:1.5;"/>
   </g>
   <g id="patch_7">
    <path d="M 57.6 307.584 
L 57.6 41.472 
" style="fill:none;stroke:#000000;stroke-linecap:square;stroke-linejoin:miter;stroke-width:0.8;"/>
   </g>
   <g id="patch_8">
    <path d="M 414.72 307.584 
L 414.72 41.472 
" style="fill:none;stroke:#000000;stroke-linecap:square;stroke-linejoin:miter;stroke-width:0.8;"/>
   </g>
   <g id="patch_9">
    <path d="M 57.6 307.584 
L 414.72 307.584 
" style="fill:none;stroke:#000000;stroke-linecap:square;stroke-linejoin:miter;stroke-width:0.8;"/>
   </g>
   <g id="patch_10">
    <path d="M 57.6 41.472 
L 414.72 41.472 
" style="fill:none;stroke:#000000;stroke-linecap:square;stroke-linejoin:miter;stroke-width:0.8;"/>
   </g>
  </g>
 </g>
 <defs>
  <clipPath id="p37a6fb39f6">
   <rect height="266.112" width="357.12" x="57.6" y="41.472"/>
  </clipPath>
 </defs>
</svg>
